<?xml version="1.0" encoding="UTF-8" standalone="no"?>
<!DOCTYPE svg PUBLIC "-//W3C//DTD SVG 1.1//EN"
 "http://www.w3.org/Graphics/SVG/1.1/DTD/svg11.dtd">
<!-- Generated by graphviz version 2.50.0 (0)
 -->
<!-- Pages: 1 -->
<svg width="780pt" height="743pt"
 viewBox="0.00 0.00 780.00 743.00" xmlns="http://www.w3.org/2000/svg" xmlns:xlink="http://www.w3.org/1999/xlink">
<g id="graph0" class="graph" transform="scale(1 1) rotate(0) translate(4 739)">
<polygon fill="white" stroke="transparent" points="-4,4 -4,-739 776,-739 776,4 -4,4"/>
<g id="clust1" class="cluster">
<title>cluster_Deep_Dream</title>
<path fill="#e6e6fa" stroke="grey" stroke-dasharray="5,2" d="M20,-8C20,-8 752,-8 752,-8 758,-8 764,-14 764,-20 764,-20 764,-715 764,-715 764,-721 758,-727 752,-727 752,-727 20,-727 20,-727 14,-727 8,-721 8,-715 8,-715 8,-20 8,-20 8,-14 14,-8 20,-8"/>
<text text-anchor="middle" x="386" y="-711.8" font-family="DejaVu Sans" font-size="14.00" fill="grey">Deep Dream</text>
</g>
<g id="clust2" class="cluster">
<title>cluster_Own_AI</title>
<path fill="#ccccde" stroke="grey" stroke-dasharray="5,2" d="M380,-16C380,-16 744,-16 744,-16 750,-16 756,-22 756,-28 756,-28 756,-684 756,-684 756,-690 750,-696 744,-696 744,-696 380,-696 380,-696 374,-696 368,-690 368,-684 368,-684 368,-28 368,-28 368,-22 374,-16 380,-16"/>
<text text-anchor="middle" x="562" y="-680.8" font-family="DejaVu Sans" font-size="14.00" fill="grey">Own AI</text>
</g>
<!-- Ask public AI -->
<g id="node1" class="node">
<title>Ask public AI</title>
<path fill="azure" stroke="black" stroke-width="2" d="M341,-639.5C341,-639.5 35,-639.5 35,-639.5 29,-639.5 23,-633.5 23,-627.5 23,-627.5 23,-522.5 23,-522.5 23,-516.5 29,-510.5 35,-510.5 35,-510.5 341,-510.5 341,-510.5 347,-510.5 353,-516.5 353,-522.5 353,-522.5 353,-627.5 353,-627.5 353,-633.5 347,-639.5 341,-639.5"/>
<polygon fill="#a1ddb2" stroke="transparent" points="33,-618 33,-633 343,-633 343,-618 33,-618"/>
<text text-anchor="start" x="114.5" y="-622.8" font-family="DejaVu Sans" font-weight="bold" font-size="14.00">Step: Use public AI</text>
<text text-anchor="start" x="33" y="-604.8" font-family="DejaVu Sans" font-size="14.00"> </text>
<text text-anchor="start" x="33" y="-588.8" font-family="DejaVu Sans" font-style="italic" font-size="14.00">Description: Use public AI instead of own AI,</text>
<text text-anchor="start" x="33" y="-571.8" font-family="DejaVu Sans" font-style="italic" font-size="14.00">since own AI betrayed me from behind.</text>
<text text-anchor="start" x="33" y="-553.8" font-family="DejaVu Sans" font-size="14.00"> </text>
<text text-anchor="start" x="33" y="-536.8" font-family="DejaVu Sans" font-size="14.00">☑ Ask AI how to build a boat.</text>
<text text-anchor="start" x="33" y="-519.8" font-family="DejaVu Sans" font-size="14.00">⚠ This might cost some money per month.</text>
</g>
<!-- Build and sail boat -->
<g id="node2" class="node">
<title>Build and sail boat</title>
<path fill="azure" stroke="black" stroke-width="2" d="M348.5,-449C348.5,-449 27.5,-449 27.5,-449 21.5,-449 15.5,-443 15.5,-437 15.5,-437 15.5,-298 15.5,-298 15.5,-292 21.5,-286 27.5,-286 27.5,-286 348.5,-286 348.5,-286 354.5,-286 360.5,-292 360.5,-298 360.5,-298 360.5,-437 360.5,-437 360.5,-443 354.5,-449 348.5,-449"/>
<polygon fill="#a1ddb2" stroke="transparent" points="26,-427.5 26,-442.5 351,-442.5 351,-427.5 26,-427.5"/>
<text text-anchor="start" x="118.5" y="-432.3" font-family="DejaVu Sans" font-weight="bold" font-size="14.00">Step: Build a boat</text>
<text text-anchor="start" x="26" y="-414.3" font-family="DejaVu Sans" font-size="14.00"> </text>
<text text-anchor="start" x="26" y="-398.3" font-family="DejaVu Sans" font-style="italic" font-size="14.00">Description: To build a simple boat for the sea.</text>
<text text-anchor="start" x="26" y="-380.3" font-family="DejaVu Sans" font-size="14.00"> </text>
<text text-anchor="start" x="26" y="-363.3" font-family="DejaVu Sans" font-size="14.00">☑ Because of less money use one of Thor</text>
<text text-anchor="start" x="26" y="-346.3" font-family="DejaVu Sans" font-size="14.00">​    Heyerdahl&#39;s rafts. Maybe Kon&#45;Tiki.</text>
<text text-anchor="start" x="26" y="-329.3" font-family="DejaVu Sans" font-size="14.00">☑ Use Humboldt Current to reach Polynesia.</text>
<text text-anchor="start" x="26" y="-312.3" font-family="DejaVu Sans" font-size="14.00">⚠ Plan to bring plenty of supplies and fishing</text>
<text text-anchor="start" x="26" y="-295.3" font-family="DejaVu Sans" font-size="14.00">​    rods.</text>
</g>
<!-- Ask public AI&#45;&gt;Build and sail boat -->
<g id="edge4" class="edge">
<title>Ask public AI&#45;&gt;Build and sail boat</title>
<path fill="none" stroke="black" d="M188,-510.39C188,-494.23 188,-476.55 188,-459.32"/>
<polygon fill="black" stroke="black" points="191.5,-459.25 188,-449.25 184.5,-459.25 191.5,-459.25"/>
</g>
<!-- Test1 -->
<g id="node3" class="node">
<title>Test1</title>
<path fill="azure" stroke="black" stroke-width="2" d="M167,-195C167,-195 137,-195 137,-195 131,-195 125,-189 125,-183 125,-183 125,-171 125,-171 125,-165 131,-159 137,-159 137,-159 167,-159 167,-159 173,-159 179,-165 179,-171 179,-171 179,-183 179,-183 179,-189 173,-195 167,-195"/>
<text text-anchor="start" x="140" y="-172.8" font-family="DejaVu Sans" font-size="14.00">abc</text>
</g>
<!-- Build and sail boat&#45;&gt;Test1 -->
<g id="edge5" class="edge">
<title>Build and sail boat&#45;&gt;Test1</title>
<path fill="none" stroke="black" d="M172.58,-285.74C167.06,-256.85 161.21,-226.22 157.16,-205.04"/>
<polygon fill="black" stroke="black" points="160.59,-204.34 155.28,-195.17 153.72,-205.65 160.59,-204.34"/>
</g>
<!-- Test2 -->
<g id="node4" class="node">
<title>Test2</title>
<path fill="azure" stroke="black" stroke-width="2" d="M239,-195C239,-195 209,-195 209,-195 203,-195 197,-189 197,-183 197,-183 197,-171 197,-171 197,-165 203,-159 209,-159 209,-159 239,-159 239,-159 245,-159 251,-165 251,-171 251,-171 251,-183 251,-183 251,-189 245,-195 239,-195"/>
<text text-anchor="start" x="213" y="-172.8" font-family="DejaVu Sans" font-size="14.00">def</text>
</g>
<!-- Build and sail boat&#45;&gt;Test2 -->
<g id="edge6" class="edge">
<title>Build and sail boat&#45;&gt;Test2</title>
<path fill="none" stroke="black" d="M203.42,-285.74C208.94,-256.85 214.79,-226.22 218.84,-205.04"/>
<polygon fill="black" stroke="black" points="222.28,-205.65 220.72,-195.17 215.41,-204.34 222.28,-205.65"/>
</g>
<!-- Create AI -->
<g id="node5" class="node">
<title>Create AI</title>
<path fill="azure" stroke="black" stroke-width="2" d="M736,-665C736,-665 388,-665 388,-665 382,-665 376,-659 376,-653 376,-653 376,-497 376,-497 376,-491 382,-485 388,-485 388,-485 736,-485 736,-485 742,-485 748,-491 748,-497 748,-497 748,-653 748,-653 748,-659 742,-665 736,-665"/>
<polygon fill="#a1ddb2" stroke="transparent" points="386,-644 386,-659 738,-659 738,-644 386,-644"/>
<text text-anchor="start" x="483.5" y="-648.8" font-family="DejaVu Sans" font-weight="bold" font-size="14.00">Step: Create own AI</text>
<text text-anchor="start" x="386" y="-630.8" font-family="DejaVu Sans" font-size="14.00"> </text>
<text text-anchor="start" x="386" y="-614.8" font-family="DejaVu Sans" font-style="italic" font-size="14.00">Description: To create my own AI with a super cool</text>
<text text-anchor="start" x="386" y="-597.8" font-family="DejaVu Sans" font-style="italic" font-size="14.00">framework.</text>
<text text-anchor="start" x="386" y="-579.8" font-family="DejaVu Sans" font-size="14.00"> </text>
<text text-anchor="start" x="386" y="-562.8" font-family="DejaVu Sans" font-size="14.00">☑ Collect data</text>
<text text-anchor="start" x="386" y="-545.8" font-family="DejaVu Sans" font-size="14.00">☑ Prepare data</text>
<text text-anchor="start" x="386" y="-528.8" font-family="DejaVu Sans" font-size="14.00">☑ Code AI</text>
<text text-anchor="start" x="386" y="-511.8" font-family="DejaVu Sans" font-size="14.00">☑ Train / Test AI</text>
<text text-anchor="start" x="386" y="-494.8" font-family="DejaVu Sans" font-size="14.00">⚠ Keep AI secret.</text>
</g>
<!-- Own AI internet -->
<g id="node6" class="node">
<title>Own AI internet</title>
<path fill="azure" stroke="black" stroke-width="2" d="M711.5,-423.5C711.5,-423.5 412.5,-423.5 412.5,-423.5 406.5,-423.5 400.5,-417.5 400.5,-411.5 400.5,-411.5 400.5,-323.5 400.5,-323.5 400.5,-317.5 406.5,-311.5 412.5,-311.5 412.5,-311.5 711.5,-311.5 711.5,-311.5 717.5,-311.5 723.5,-317.5 723.5,-323.5 723.5,-323.5 723.5,-411.5 723.5,-411.5 723.5,-417.5 717.5,-423.5 711.5,-423.5"/>
<polygon fill="#f8ec99" stroke="transparent" points="411,-402.5 411,-417.5 714,-417.5 714,-402.5 411,-402.5"/>
<text text-anchor="start" x="452.5" y="-407.3" font-family="DejaVu Sans" font-weight="bold" font-size="14.00">Step: Connect AI to internet</text>
<text text-anchor="start" x="411" y="-389.3" font-family="DejaVu Sans" font-size="14.00"> </text>
<text text-anchor="start" x="411" y="-373.3" font-family="DejaVu Sans" font-style="italic" font-size="14.00">Description: For training AI with more data!</text>
<text text-anchor="start" x="411" y="-355.3" font-family="DejaVu Sans" font-size="14.00"> </text>
<text text-anchor="start" x="411" y="-338.3" font-family="DejaVu Sans" font-size="14.00">☑ Fetch data from typical search engines</text>
<text text-anchor="start" x="411" y="-321.3" font-family="DejaVu Sans" font-size="14.00">☐ Prepare fetched data for AI</text>
</g>
<!-- Create AI&#45;&gt;Own AI internet -->
<g id="edge1" class="edge">
<title>Create AI&#45;&gt;Own AI internet</title>
<path fill="none" stroke="black" d="M562,-484.76C562,-467.7 562,-450.14 562,-433.99"/>
<polygon fill="black" stroke="black" points="565.5,-433.6 562,-423.6 558.5,-433.6 565.5,-433.6"/>
</g>
<!-- Secret AI Plan -->
<g id="node7" class="node">
<title>Secret AI Plan</title>
<path fill="azure" stroke="black" stroke-width="2" d="M726,-250C726,-250 398,-250 398,-250 392,-250 386,-244 386,-238 386,-238 386,-116 386,-116 386,-110 392,-104 398,-104 398,-104 726,-104 726,-104 732,-104 738,-110 738,-116 738,-116 738,-238 738,-238 738,-244 732,-250 726,-250"/>
<polygon fill="#ff8080" stroke="transparent" points="396,-229 396,-244 728,-244 728,-229 396,-229"/>
<text text-anchor="start" x="512" y="-233.8" font-family="DejaVu Sans" font-weight="bold" font-size="14.00">Step: AI plan</text>
<text text-anchor="start" x="396" y="-215.8" font-family="DejaVu Sans" font-size="14.00"> </text>
<text text-anchor="start" x="396" y="-199.8" font-family="DejaVu Sans" font-style="italic" font-size="14.00">Description: Let AI create a plan how to get rich</text>
<text text-anchor="start" x="396" y="-182.8" font-family="DejaVu Sans" font-style="italic" font-size="14.00">and how to find the meaning of life.</text>
<text text-anchor="start" x="396" y="-164.8" font-family="DejaVu Sans" font-size="14.00"> </text>
<text text-anchor="start" x="396" y="-147.8" font-family="DejaVu Sans" font-size="14.00">☐ Add some magic to AI code</text>
<text text-anchor="start" x="396" y="-130.8" font-family="DejaVu Sans" font-size="14.00">☐ Keep AI secret.</text>
<text text-anchor="start" x="396" y="-113.8" font-family="DejaVu Sans" font-size="14.00">⚠ This might blow up your mind.</text>
</g>
<!-- Own AI internet&#45;&gt;Secret AI Plan -->
<g id="edge2" class="edge">
<title>Own AI internet&#45;&gt;Secret AI Plan</title>
<path fill="none" stroke="black" d="M562,-311.47C562,-295.48 562,-277.66 562,-260.38"/>
<polygon fill="black" stroke="black" points="565.5,-260.29 562,-250.29 558.5,-260.29 565.5,-260.29"/>
</g>
<!-- Own AI Fail -->
<g id="node8" class="node">
<title>Own AI Fail</title>
<path fill="azure" stroke="black" stroke-width="2" d="M725.5,-68C725.5,-68 398.5,-68 398.5,-68 392.5,-68 386.5,-62 386.5,-56 386.5,-56 386.5,-36 386.5,-36 386.5,-30 392.5,-24 398.5,-24 398.5,-24 725.5,-24 725.5,-24 731.5,-24 737.5,-30 737.5,-36 737.5,-36 737.5,-56 737.5,-56 737.5,-62 731.5,-68 725.5,-68"/>
<text text-anchor="start" x="397" y="-50.8" font-family="DejaVu Sans" font-size="14.00">AI finds perfect plan but makes another person</text>
<text text-anchor="start" x="397" y="-33.8" font-family="DejaVu Sans" font-size="14.00">rich.</text>
</g>
<!-- Secret AI Plan&#45;&gt;Own AI Fail -->
<g id="edge3" class="edge">
<title>Secret AI Plan&#45;&gt;Own AI Fail</title>
<path fill="none" stroke="black" d="M562,-103.96C562,-94.99 562,-86.22 562,-78.35"/>
<polygon fill="black" stroke="black" points="565.5,-78.25 562,-68.25 558.5,-78.25 565.5,-78.25"/>
</g>
</g>
</svg>
