<?xml version="1.0" encoding="UTF-8" standalone="no"?>
<!DOCTYPE svg PUBLIC "-//W3C//DTD SVG 1.1//EN"
 "http://www.w3.org/Graphics/SVG/1.1/DTD/svg11.dtd">
<!-- Generated by graphviz version 2.50.0 (0)
 -->
<!-- Pages: 1 -->
<svg width="1099pt" height="1345pt"
 viewBox="0.00 0.00 1099.00 1345.00" xmlns="http://www.w3.org/2000/svg" xmlns:xlink="http://www.w3.org/1999/xlink">
<g id="graph0" class="graph" transform="scale(1 1) rotate(0) translate(4 1341)">
<polygon fill="white" stroke="transparent" points="-4,4 -4,-1341 1095,-1341 1095,4 -4,4"/>
<g id="clust1" class="cluster">
<title>cluster_Deep_Dream</title>
<path fill="#e6e6fa" stroke="grey" stroke-dasharray="5,2" d="M20,-421C20,-421 778,-421 778,-421 784,-421 790,-427 790,-433 790,-433 790,-1317 790,-1317 790,-1323 784,-1329 778,-1329 778,-1329 20,-1329 20,-1329 14,-1329 8,-1323 8,-1317 8,-1317 8,-433 8,-433 8,-427 14,-421 20,-421"/>
<text text-anchor="middle" x="399" y="-1313.8" font-family="DejaVu Sans" font-size="14.00" fill="grey">Deep Dream</text>
</g>
<g id="clust2" class="cluster">
<title>cluster_Own_AI</title>
<path fill="#ccccde" stroke="grey" stroke-dasharray="5,2" d="M406,-572.5C406,-572.5 770,-572.5 770,-572.5 776,-572.5 782,-578.5 782,-584.5 782,-584.5 782,-1286 782,-1286 782,-1292 776,-1298 770,-1298 770,-1298 406,-1298 406,-1298 400,-1298 394,-1292 394,-1286 394,-1286 394,-584.5 394,-584.5 394,-578.5 400,-572.5 406,-572.5"/>
<text text-anchor="middle" x="588" y="-1282.8" font-family="DejaVu Sans" font-size="14.00" fill="grey">Own AI</text>
</g>
<g id="clust3" class="cluster">
<title>cluster_Polynesia_adventure</title>
<path fill="#ccccde" stroke="grey" stroke-dasharray="5,2" d="M28,-429C28,-429 374,-429 374,-429 380,-429 386,-435 386,-441 386,-441 386,-1067 386,-1067 386,-1073 380,-1079 374,-1079 374,-1079 28,-1079 28,-1079 22,-1079 16,-1073 16,-1067 16,-1067 16,-441 16,-441 16,-435 22,-429 28,-429"/>
<text text-anchor="middle" x="201" y="-1063.8" font-family="DejaVu Sans" font-size="14.00" fill="grey">Polynesia adventure</text>
</g>
<g id="clust4" class="cluster">
<title>cluster_Nice_island_adventure</title>
<path fill="#b2b2c2" stroke="grey" stroke-dasharray="5,2" d="M36,-437C36,-437 366,-437 366,-437 372,-437 378,-443 378,-449 378,-449 378,-851 378,-851 378,-857 372,-863 366,-863 366,-863 36,-863 36,-863 30,-863 24,-857 24,-851 24,-851 24,-449 24,-449 24,-443 30,-437 36,-437"/>
<text text-anchor="middle" x="201" y="-847.8" font-family="DejaVu Sans" font-size="14.00" fill="#eeeeee">Nice island adventure</text>
</g>
<g id="clust5" class="cluster">
<title>cluster_Heaven_or_whatever</title>
<path fill="#e6e6fa" stroke="grey" stroke-dasharray="5,2" d="M719,-8C719,-8 1071,-8 1071,-8 1077,-8 1083,-14 1083,-20 1083,-20 1083,-401 1083,-401 1083,-407 1077,-413 1071,-413 1071,-413 719,-413 719,-413 713,-413 707,-407 707,-401 707,-401 707,-20 707,-20 707,-14 713,-8 719,-8"/>
<text text-anchor="middle" x="895" y="-397.8" font-family="DejaVu Sans" font-size="14.00" fill="grey">Heaven or whatever</text>
<text text-anchor="middle" x="895" y="-382.8" font-family="DejaVu Sans" font-size="14.00" fill="grey">Living in a simulation, thus Simulation Theory</text>
<text text-anchor="middle" x="895" y="-367.8" font-family="DejaVu Sans" font-size="14.00" fill="grey">applies.</text>
</g>
<!-- Ask public AI -->
<g id="node1" class="node">
<title>Ask public AI</title>
<path fill="azure" stroke="black" stroke-width="2" d="M356,-1241.5C356,-1241.5 50,-1241.5 50,-1241.5 44,-1241.5 38,-1235.5 38,-1229.5 38,-1229.5 38,-1124.5 38,-1124.5 38,-1118.5 44,-1112.5 50,-1112.5 50,-1112.5 356,-1112.5 356,-1112.5 362,-1112.5 368,-1118.5 368,-1124.5 368,-1124.5 368,-1229.5 368,-1229.5 368,-1235.5 362,-1241.5 356,-1241.5"/>
<polygon fill="#a1ddb2" stroke="transparent" points="48,-1220 48,-1235 358,-1235 358,-1220 48,-1220"/>
<text text-anchor="start" x="129.5" y="-1224.8" font-family="DejaVu Sans" font-weight="bold" font-size="14.00">Step: Use public AI</text>
<text text-anchor="start" x="48" y="-1206.8" font-family="DejaVu Sans" font-size="14.00"> </text>
<text text-anchor="start" x="48" y="-1190.8" font-family="DejaVu Sans" font-style="italic" font-size="14.00">Description: Use public AI instead of own AI,</text>
<text text-anchor="start" x="48" y="-1173.8" font-family="DejaVu Sans" font-style="italic" font-size="14.00">since own AI betrayed me from behind.</text>
<text text-anchor="start" x="48" y="-1155.8" font-family="DejaVu Sans" font-size="14.00"> </text>
<text text-anchor="start" x="48" y="-1138.8" font-family="DejaVu Sans" font-size="14.00">☑ Ask AI how to build a boat.</text>
<text text-anchor="start" x="48" y="-1121.8" font-family="DejaVu Sans" font-size="14.00">⚠ This might cost some money per month.</text>
</g>
<!-- Build and sail boat -->
<g id="node6" class="node">
<title>Build and sail boat</title>
<path fill="azure" stroke="black" stroke-width="2" d="M363.5,-1048C363.5,-1048 42.5,-1048 42.5,-1048 36.5,-1048 30.5,-1042 30.5,-1036 30.5,-1036 30.5,-897 30.5,-897 30.5,-891 36.5,-885 42.5,-885 42.5,-885 363.5,-885 363.5,-885 369.5,-885 375.5,-891 375.5,-897 375.5,-897 375.5,-1036 375.5,-1036 375.5,-1042 369.5,-1048 363.5,-1048"/>
<polygon fill="#a1ddb2" stroke="transparent" points="41,-1026.5 41,-1041.5 366,-1041.5 366,-1026.5 41,-1026.5"/>
<text text-anchor="start" x="133.5" y="-1031.3" font-family="DejaVu Sans" font-weight="bold" font-size="14.00">Step: Build a boat</text>
<text text-anchor="start" x="41" y="-1013.3" font-family="DejaVu Sans" font-size="14.00"> </text>
<text text-anchor="start" x="41" y="-997.3" font-family="DejaVu Sans" font-style="italic" font-size="14.00">Description: To build a simple boat for the sea.</text>
<text text-anchor="start" x="41" y="-979.3" font-family="DejaVu Sans" font-size="14.00"> </text>
<text text-anchor="start" x="41" y="-962.3" font-family="DejaVu Sans" font-size="14.00">☑ Because of less money use one of Thor</text>
<text text-anchor="start" x="41" y="-945.3" font-family="DejaVu Sans" font-size="14.00">​    Heyerdahl&#39;s rafts. Maybe Kon&#45;Tiki.</text>
<text text-anchor="start" x="41" y="-928.3" font-family="DejaVu Sans" font-size="14.00">☑ Use Humboldt Current to reach Polynesia.</text>
<text text-anchor="start" x="41" y="-911.3" font-family="DejaVu Sans" font-size="14.00">⚠ Plan to bring plenty of supplies and fishing</text>
<text text-anchor="start" x="41" y="-894.3" font-family="DejaVu Sans" font-size="14.00">​    rods.</text>
</g>
<!-- Ask public AI&#45;&gt;Build and sail boat -->
<g id="edge4" class="edge">
<title>Ask public AI&#45;&gt;Build and sail boat</title>
<path fill="none" stroke="black" d="M203,-1112.31C203,-1095.23 203,-1076.44 203,-1058.2"/>
<polygon fill="black" stroke="black" points="206.5,-1058.14 203,-1048.14 199.5,-1058.14 206.5,-1058.14"/>
</g>
<!-- Create AI -->
<g id="node2" class="node">
<title>Create AI</title>
<path fill="azure" stroke="black" stroke-width="2" d="M762,-1267C762,-1267 414,-1267 414,-1267 408,-1267 402,-1261 402,-1255 402,-1255 402,-1099 402,-1099 402,-1093 408,-1087 414,-1087 414,-1087 762,-1087 762,-1087 768,-1087 774,-1093 774,-1099 774,-1099 774,-1255 774,-1255 774,-1261 768,-1267 762,-1267"/>
<polygon fill="#a1ddb2" stroke="transparent" points="412,-1246 412,-1261 764,-1261 764,-1246 412,-1246"/>
<text text-anchor="start" x="509.5" y="-1250.8" font-family="DejaVu Sans" font-weight="bold" font-size="14.00">Step: Create own AI</text>
<text text-anchor="start" x="412" y="-1232.8" font-family="DejaVu Sans" font-size="14.00"> </text>
<text text-anchor="start" x="412" y="-1216.8" font-family="DejaVu Sans" font-style="italic" font-size="14.00">Description: To create my own AI with a super cool</text>
<text text-anchor="start" x="412" y="-1199.8" font-family="DejaVu Sans" font-style="italic" font-size="14.00">framework.</text>
<text text-anchor="start" x="412" y="-1181.8" font-family="DejaVu Sans" font-size="14.00"> </text>
<text text-anchor="start" x="412" y="-1164.8" font-family="DejaVu Sans" font-size="14.00">☑ Collect data</text>
<text text-anchor="start" x="412" y="-1147.8" font-family="DejaVu Sans" font-size="14.00">☑ Prepare data</text>
<text text-anchor="start" x="412" y="-1130.8" font-family="DejaVu Sans" font-size="14.00">☑ Code AI</text>
<text text-anchor="start" x="412" y="-1113.8" font-family="DejaVu Sans" font-size="14.00">☑ Train / Test AI</text>
<text text-anchor="start" x="412" y="-1096.8" font-family="DejaVu Sans" font-size="14.00">⚠ Keep AI secret.</text>
</g>
<!-- Own AI internet -->
<g id="node3" class="node">
<title>Own AI internet</title>
<path fill="azure" stroke="black" stroke-width="2" d="M737.5,-1022.5C737.5,-1022.5 438.5,-1022.5 438.5,-1022.5 432.5,-1022.5 426.5,-1016.5 426.5,-1010.5 426.5,-1010.5 426.5,-922.5 426.5,-922.5 426.5,-916.5 432.5,-910.5 438.5,-910.5 438.5,-910.5 737.5,-910.5 737.5,-910.5 743.5,-910.5 749.5,-916.5 749.5,-922.5 749.5,-922.5 749.5,-1010.5 749.5,-1010.5 749.5,-1016.5 743.5,-1022.5 737.5,-1022.5"/>
<polygon fill="#f8ec99" stroke="transparent" points="437,-1001.5 437,-1016.5 740,-1016.5 740,-1001.5 437,-1001.5"/>
<text text-anchor="start" x="478.5" y="-1006.3" font-family="DejaVu Sans" font-weight="bold" font-size="14.00">Step: Connect AI to internet</text>
<text text-anchor="start" x="437" y="-988.3" font-family="DejaVu Sans" font-size="14.00"> </text>
<text text-anchor="start" x="437" y="-972.3" font-family="DejaVu Sans" font-style="italic" font-size="14.00">Description: For training AI with more data!</text>
<text text-anchor="start" x="437" y="-954.3" font-family="DejaVu Sans" font-size="14.00"> </text>
<text text-anchor="start" x="437" y="-937.3" font-family="DejaVu Sans" font-size="14.00">☑ Fetch data from typical search engines</text>
<text text-anchor="start" x="437" y="-920.3" font-family="DejaVu Sans" font-size="14.00">☐ Prepare fetched data for AI</text>
</g>
<!-- Create AI&#45;&gt;Own AI internet -->
<g id="edge1" class="edge">
<title>Create AI&#45;&gt;Own AI internet</title>
<path fill="none" stroke="black" d="M588,-1086.97C588,-1068.92 588,-1050.24 588,-1033.16"/>
<polygon fill="black" stroke="black" points="591.5,-1032.76 588,-1022.76 584.5,-1032.76 591.5,-1032.76"/>
</g>
<!-- Secret AI Plan -->
<g id="node4" class="node">
<title>Secret AI Plan</title>
<path fill="azure" stroke="black" stroke-width="2" d="M752,-849C752,-849 424,-849 424,-849 418,-849 412,-843 412,-837 412,-837 412,-715 412,-715 412,-709 418,-703 424,-703 424,-703 752,-703 752,-703 758,-703 764,-709 764,-715 764,-715 764,-837 764,-837 764,-843 758,-849 752,-849"/>
<polygon fill="#ff8080" stroke="transparent" points="422,-828 422,-843 754,-843 754,-828 422,-828"/>
<text text-anchor="start" x="538" y="-832.8" font-family="DejaVu Sans" font-weight="bold" font-size="14.00">Step: AI plan</text>
<text text-anchor="start" x="422" y="-814.8" font-family="DejaVu Sans" font-size="14.00"> </text>
<text text-anchor="start" x="422" y="-798.8" font-family="DejaVu Sans" font-style="italic" font-size="14.00">Description: Let AI create a plan how to get rich</text>
<text text-anchor="start" x="422" y="-781.8" font-family="DejaVu Sans" font-style="italic" font-size="14.00">and how to find the meaning of life.</text>
<text text-anchor="start" x="422" y="-763.8" font-family="DejaVu Sans" font-size="14.00"> </text>
<text text-anchor="start" x="422" y="-746.8" font-family="DejaVu Sans" font-size="14.00">☐ Add some magic to AI code</text>
<text text-anchor="start" x="422" y="-729.8" font-family="DejaVu Sans" font-size="14.00">☐ Keep AI secret.</text>
<text text-anchor="start" x="422" y="-712.8" font-family="DejaVu Sans" font-size="14.00">⚠ This might blow up your mind.</text>
</g>
<!-- Own AI internet&#45;&gt;Secret AI Plan -->
<g id="edge2" class="edge">
<title>Own AI internet&#45;&gt;Secret AI Plan</title>
<path fill="none" stroke="black" d="M588,-910.47C588,-894.48 588,-876.66 588,-859.38"/>
<polygon fill="black" stroke="black" points="591.5,-859.29 588,-849.29 584.5,-859.29 591.5,-859.29"/>
</g>
<!-- Own AI Fail -->
<g id="node5" class="node">
<title>Own AI Fail</title>
<path fill="azure" stroke="black" stroke-width="2" d="M751.5,-624.5C751.5,-624.5 424.5,-624.5 424.5,-624.5 418.5,-624.5 412.5,-618.5 412.5,-612.5 412.5,-612.5 412.5,-592.5 412.5,-592.5 412.5,-586.5 418.5,-580.5 424.5,-580.5 424.5,-580.5 751.5,-580.5 751.5,-580.5 757.5,-580.5 763.5,-586.5 763.5,-592.5 763.5,-592.5 763.5,-612.5 763.5,-612.5 763.5,-618.5 757.5,-624.5 751.5,-624.5"/>
<text text-anchor="start" x="423" y="-607.3" font-family="DejaVu Sans" font-size="14.00">AI finds perfect plan but makes another person</text>
<text text-anchor="start" x="423" y="-590.3" font-family="DejaVu Sans" font-size="14.00">rich.</text>
</g>
<!-- Secret AI Plan&#45;&gt;Own AI Fail -->
<g id="edge3" class="edge">
<title>Secret AI Plan&#45;&gt;Own AI Fail</title>
<path fill="none" stroke="black" d="M588,-702.77C588,-679.09 588,-654 588,-634.96"/>
<polygon fill="black" stroke="black" points="591.5,-634.79 588,-624.79 584.5,-634.79 591.5,-634.79"/>
</g>
<!-- Island adventure -->
<g id="node7" class="node">
<title>Island adventure</title>
<path fill="azure" stroke="black" stroke-width="2" d="M358,-832C358,-832 44,-832 44,-832 38,-832 32,-826 32,-820 32,-820 32,-732 32,-732 32,-726 38,-720 44,-720 44,-720 358,-720 358,-720 364,-720 370,-726 370,-732 370,-732 370,-820 370,-820 370,-826 364,-832 358,-832"/>
<polygon fill="#a1ddb2" stroke="transparent" points="42,-811 42,-826 360,-826 360,-811 42,-811"/>
<text text-anchor="start" x="135.5" y="-815.8" font-family="DejaVu Sans" font-weight="bold" font-size="14.00">Step: Find island</text>
<text text-anchor="start" x="42" y="-797.8" font-family="DejaVu Sans" font-size="14.00"> </text>
<text text-anchor="start" x="42" y="-781.8" font-family="DejaVu Sans" font-style="italic" font-size="14.00">Description: To find a nice island in Polynesia.</text>
<text text-anchor="start" x="42" y="-763.8" font-family="DejaVu Sans" font-size="14.00"> </text>
<text text-anchor="start" x="42" y="-746.8" font-family="DejaVu Sans" font-size="14.00">☑ Drop anchor when on the beach.</text>
<text text-anchor="start" x="42" y="-729.8" font-family="DejaVu Sans" font-size="14.00">⚠ Beware of dangerous coral reefs!</text>
</g>
<!-- Build and sail boat&#45;&gt;Island adventure -->
<g id="edge5" class="edge">
<title>Build and sail boat&#45;&gt;Island adventure</title>
<path fill="none" stroke="black" d="M202.14,-884.74C201.99,-870.56 201.84,-855.98 201.69,-842.29"/>
<polygon fill="black" stroke="black" points="205.19,-841.98 201.58,-832.02 198.19,-842.06 205.19,-841.98"/>
</g>
<!-- Wake up 2 -->
<g id="node15" class="node">
<title>Wake up 2</title>
<path fill="azure" stroke="black" stroke-width="2" d="M905,-794C905,-794 835,-794 835,-794 829,-794 823,-788 823,-782 823,-782 823,-770 823,-770 823,-764 829,-758 835,-758 835,-758 905,-758 905,-758 911,-758 917,-764 917,-770 917,-770 917,-782 917,-782 917,-788 911,-794 905,-794"/>
<text text-anchor="start" x="833" y="-771.8" font-family="DejaVu Sans" font-size="14.00">Waking up</text>
</g>
<!-- Build and sail boat&#45;&gt;Wake up 2 -->
<g id="edge9" class="edge">
<title>Build and sail boat&#45;&gt;Wake up 2</title>
<path fill="none" stroke="black" d="M375.73,-888.66C380.51,-887.34 385.27,-886.11 390,-885 475.79,-864.82 705.75,-899.45 786,-863 814.43,-850.09 838.32,-822.89 853.27,-802.52"/>
<polygon fill="black" stroke="black" points="856.19,-804.45 859.12,-794.27 850.48,-800.4 856.19,-804.45"/>
</g>
<!-- Search hidden treasure -->
<g id="node8" class="node">
<title>Search hidden treasure</title>
<path fill="azure" stroke="black" stroke-width="2" d="M305,-620.5C305,-620.5 97,-620.5 97,-620.5 91,-620.5 85,-614.5 85,-608.5 85,-608.5 85,-596.5 85,-596.5 85,-590.5 91,-584.5 97,-584.5 97,-584.5 305,-584.5 305,-584.5 311,-584.5 317,-590.5 317,-596.5 317,-596.5 317,-608.5 317,-608.5 317,-614.5 311,-620.5 305,-620.5"/>
<text text-anchor="start" x="95" y="-598.3" font-family="DejaVu Sans" font-size="14.00">Plan to search hidden treasure</text>
</g>
<!-- Island adventure&#45;&gt;Search hidden treasure -->
<g id="edge6" class="edge">
<title>Island adventure&#45;&gt;Search hidden treasure</title>
<path fill="none" stroke="black" d="M201,-719.79C201,-690.07 201,-654.72 201,-630.86"/>
<polygon fill="black" stroke="black" points="204.5,-630.77 201,-620.77 197.5,-630.77 204.5,-630.77"/>
</g>
<!-- Be rich -->
<g id="node9" class="node">
<title>Be rich</title>
<path fill="azure" stroke="black" stroke-width="2" d="M308.5,-481C308.5,-481 93.5,-481 93.5,-481 87.5,-481 81.5,-475 81.5,-469 81.5,-469 81.5,-457 81.5,-457 81.5,-451 87.5,-445 93.5,-445 93.5,-445 308.5,-445 308.5,-445 314.5,-445 320.5,-451 320.5,-457 320.5,-457 320.5,-469 320.5,-469 320.5,-475 314.5,-481 308.5,-481"/>
<text text-anchor="start" x="92" y="-458.8" font-family="DejaVu Sans" font-size="14.00">Plan to be rich on lonely island!</text>
</g>
<!-- Search hidden treasure&#45;&gt;Be rich -->
<g id="edge7" class="edge">
<title>Search hidden treasure&#45;&gt;Be rich</title>
<path fill="none" stroke="black" d="M201,-584.36C201,-561.1 201,-519.27 201,-491.56"/>
<polygon fill="black" stroke="black" points="204.5,-491.35 201,-481.35 197.5,-491.35 204.5,-491.35"/>
</g>
<!-- Wake up -->
<g id="node14" class="node">
<title>Wake up</title>
<path fill="azure" stroke="black" stroke-width="2" d="M236,-314C236,-314 166,-314 166,-314 160,-314 154,-308 154,-302 154,-302 154,-290 154,-290 154,-284 160,-278 166,-278 166,-278 236,-278 236,-278 242,-278 248,-284 248,-290 248,-290 248,-302 248,-302 248,-308 242,-314 236,-314"/>
<text text-anchor="start" x="164" y="-291.8" font-family="DejaVu Sans" font-size="14.00">Waking up</text>
</g>
<!-- Be rich&#45;&gt;Wake up -->
<g id="edge8" class="edge">
<title>Be rich&#45;&gt;Wake up</title>
<path fill="none" stroke="black" d="M201,-444.96C201,-416.43 201,-358.75 201,-324.44"/>
<polygon fill="black" stroke="black" points="204.5,-324.19 201,-314.19 197.5,-324.19 204.5,-324.19"/>
</g>
<!-- Locate -->
<g id="node10" class="node">
<title>Locate</title>
<path fill="azure" stroke="black" stroke-width="2" d="M1063.5,-352C1063.5,-352 726.5,-352 726.5,-352 720.5,-352 714.5,-346 714.5,-340 714.5,-340 714.5,-252 714.5,-252 714.5,-246 720.5,-240 726.5,-240 726.5,-240 1063.5,-240 1063.5,-240 1069.5,-240 1075.5,-246 1075.5,-252 1075.5,-252 1075.5,-340 1075.5,-340 1075.5,-346 1069.5,-352 1063.5,-352"/>
<polygon fill="#ff8080" stroke="transparent" points="725,-331 725,-346 1066,-346 1066,-331 725,-331"/>
<text text-anchor="start" x="845.5" y="-335.8" font-family="DejaVu Sans" font-weight="bold" font-size="14.00">Step: Locate</text>
<text text-anchor="start" x="725" y="-317.8" font-family="DejaVu Sans" font-size="14.00"> </text>
<text text-anchor="start" x="725" y="-301.8" font-family="DejaVu Sans" font-style="italic" font-size="14.00">Description: One question arises: &#39;Where the hell</text>
<text text-anchor="start" x="725" y="-284.8" font-family="DejaVu Sans" font-style="italic" font-size="14.00">am I?&#39;</text>
<text text-anchor="start" x="725" y="-266.8" font-family="DejaVu Sans" font-size="14.00"> </text>
<text text-anchor="start" x="725" y="-249.8" font-family="DejaVu Sans" font-size="14.00">☐ Ask for current location</text>
</g>
<!-- Fail -->
<g id="node11" class="node">
<title>Fail</title>
<path fill="azure" stroke="black" stroke-width="2" d="M910,-204C910,-204 880,-204 880,-204 874,-204 868,-198 868,-192 868,-192 868,-180 868,-180 868,-174 874,-168 880,-168 880,-168 910,-168 910,-168 916,-168 922,-174 922,-180 922,-180 922,-192 922,-192 922,-198 916,-204 910,-204"/>
<text text-anchor="middle" x="895" y="-182.3" font-family="DejaVu Sans" font-size="14.00">Fail</text>
</g>
<!-- Locate&#45;&gt;Fail -->
<g id="edge13" class="edge">
<title>Locate&#45;&gt;Fail</title>
<path fill="none" stroke="black" d="M895,-239.73C895,-230.99 895,-222.28 895,-214.54"/>
<polygon fill="black" stroke="black" points="898.5,-214.34 895,-204.34 891.5,-214.34 898.5,-214.34"/>
</g>
<!-- Hacking plan -->
<g id="node12" class="node">
<title>Hacking plan</title>
<path fill="azure" stroke="black" stroke-width="2" d="M1046,-132C1046,-132 744,-132 744,-132 738,-132 732,-126 732,-120 732,-120 732,-108 732,-108 732,-102 738,-96 744,-96 744,-96 1046,-96 1046,-96 1052,-96 1058,-102 1058,-108 1058,-108 1058,-120 1058,-120 1058,-126 1052,-132 1046,-132"/>
<text text-anchor="start" x="742" y="-109.8" font-family="DejaVu Sans" font-size="14.00">☐ Make plan to hack heaven&#39;s master code.</text>
</g>
<!-- Fail&#45;&gt;Hacking plan -->
<g id="edge14" class="edge">
<title>Fail&#45;&gt;Hacking plan</title>
<path fill="none" stroke="black" d="M895,-167.7C895,-159.98 895,-150.71 895,-142.11"/>
<polygon fill="black" stroke="black" points="898.5,-142.1 895,-132.1 891.5,-142.1 898.5,-142.1"/>
</g>
<!-- Cheating -->
<g id="node13" class="node">
<title>Cheating</title>
<path fill="azure" stroke="black" stroke-width="2" d="M1019,-60C1019,-60 771,-60 771,-60 765,-60 759,-54 759,-48 759,-48 759,-28 759,-28 759,-22 765,-16 771,-16 771,-16 1019,-16 1019,-16 1025,-16 1031,-22 1031,-28 1031,-28 1031,-48 1031,-48 1031,-54 1025,-60 1019,-60"/>
<text text-anchor="start" x="769" y="-42.8" font-family="DejaVu Sans" font-size="14.00">☐ Add more lives to your own entity</text>
<text text-anchor="start" x="769" y="-25.8" font-family="DejaVu Sans" font-size="14.00">⚠ Don&#39;t get caught!</text>
</g>
<!-- Hacking plan&#45;&gt;Cheating -->
<g id="edge15" class="edge">
<title>Hacking plan&#45;&gt;Cheating</title>
<path fill="none" stroke="black" d="M895,-95.84C895,-88.16 895,-78.88 895,-70.05"/>
<polygon fill="black" stroke="black" points="898.5,-70.03 895,-60.03 891.5,-70.03 898.5,-70.03"/>
</g>
<!-- Life -->
<g id="node16" class="node">
<title>Life</title>
<path fill="azure" stroke="black" stroke-width="2" d="M979.5,-667C979.5,-667 810.5,-667 810.5,-667 804.5,-667 798.5,-661 798.5,-655 798.5,-655 798.5,-550 798.5,-550 798.5,-544 804.5,-538 810.5,-538 810.5,-538 979.5,-538 979.5,-538 985.5,-538 991.5,-544 991.5,-550 991.5,-550 991.5,-655 991.5,-655 991.5,-661 985.5,-667 979.5,-667"/>
<polygon fill="#a1ddb2" stroke="transparent" points="809,-645.5 809,-660.5 982,-660.5 982,-645.5 809,-645.5"/>
<text text-anchor="start" x="835" y="-650.3" font-family="DejaVu Sans" font-weight="bold" font-size="14.00">Step: Doing life</text>
<text text-anchor="start" x="809" y="-632.3" font-family="DejaVu Sans" font-size="14.00"> </text>
<text text-anchor="start" x="809" y="-616.3" font-family="DejaVu Sans" font-style="italic" font-size="14.00">Description: Live the life.</text>
<text text-anchor="start" x="809" y="-598.3" font-family="DejaVu Sans" font-size="14.00"> </text>
<text text-anchor="start" x="809" y="-581.3" font-family="DejaVu Sans" font-size="14.00">☑ Work hard</text>
<text text-anchor="start" x="809" y="-564.3" font-family="DejaVu Sans" font-size="14.00">☑ Sleep soft</text>
<text text-anchor="start" x="809" y="-547.3" font-family="DejaVu Sans" font-size="14.00">☑ Earn money</text>
</g>
<!-- Wake up 2&#45;&gt;Life -->
<g id="edge10" class="edge">
<title>Wake up 2&#45;&gt;Life</title>
<path fill="none" stroke="black" d="M872.49,-757.93C875.25,-738.98 879.9,-707.1 884.25,-677.22"/>
<polygon fill="black" stroke="black" points="887.74,-677.58 885.72,-667.18 880.81,-676.57 887.74,-677.58"/>
</g>
<!-- Paradise -->
<g id="node17" class="node">
<title>Paradise</title>
<path fill="azure" stroke="black" stroke-width="2" d="M970,-502C970,-502 820,-502 820,-502 814,-502 808,-496 808,-490 808,-490 808,-436 808,-436 808,-430 814,-424 820,-424 820,-424 970,-424 970,-424 976,-424 982,-430 982,-436 982,-436 982,-490 982,-490 982,-496 976,-502 970,-502"/>
<polygon fill="#ff8080" stroke="transparent" points="818,-481 818,-496 972,-496 972,-481 818,-481"/>
<text text-anchor="start" x="833" y="-485.8" font-family="DejaVu Sans" font-weight="bold" font-size="14.00">Step: Die young</text>
<text text-anchor="start" x="818" y="-467.8" font-family="DejaVu Sans" font-size="14.00"> </text>
<text text-anchor="start" x="818" y="-450.8" font-family="DejaVu Sans" font-size="14.00">☐ Apply to heaven.</text>
<text text-anchor="start" x="818" y="-433.8" font-family="DejaVu Sans" font-size="14.00">⚠ Choose right planet</text>
</g>
<!-- Life&#45;&gt;Paradise -->
<g id="edge11" class="edge">
<title>Life&#45;&gt;Paradise</title>
<path fill="none" stroke="black" d="M895,-537.98C895,-529.37 895,-520.65 895,-512.37"/>
<polygon fill="black" stroke="black" points="898.5,-512.15 895,-502.15 891.5,-512.15 898.5,-512.15"/>
</g>
<!-- Paradise&#45;&gt;Locate -->
<g id="edge12" class="edge">
<title>Paradise&#45;&gt;Locate</title>
<path fill="none" stroke="black" d="M895,-423.73C895,-405.49 895,-383.15 895,-362.33"/>
<polygon fill="black" stroke="black" points="898.5,-362.26 895,-352.26 891.5,-362.26 898.5,-362.26"/>
</g>
</g>
</svg>
