<?xml version="1.0" encoding="UTF-8" standalone="no"?>
<!DOCTYPE svg PUBLIC "-//W3C//DTD SVG 1.1//EN"
 "http://www.w3.org/Graphics/SVG/1.1/DTD/svg11.dtd">
<!-- Generated by graphviz version 2.50.0 (0)
 -->
<!-- Pages: 1 -->
<svg width="647pt" height="730pt"
 viewBox="0.00 0.00 647.00 730.00" xmlns="http://www.w3.org/2000/svg" xmlns:xlink="http://www.w3.org/1999/xlink">
<g id="graph0" class="graph" transform="scale(1 1) rotate(0) translate(4 726)">
<polygon fill="white" stroke="transparent" points="-4,4 -4,-726 643,-726 643,4 -4,4"/>
<g id="clust1" class="cluster">
<title>cluster_Data_Preparation</title>
<path fill="#e6e6fa" stroke="grey" stroke-dasharray="5,2" d="M267,-276C267,-276 619,-276 619,-276 625,-276 631,-282 631,-288 631,-288 631,-702 631,-702 631,-708 625,-714 619,-714 619,-714 267,-714 267,-714 261,-714 255,-708 255,-702 255,-702 255,-288 255,-288 255,-282 261,-276 267,-276"/>
<text text-anchor="middle" x="443" y="-698.8" font-family="DejaVu Sans" font-size="14.00" fill="grey">Data Preparation</text>
<text text-anchor="middle" x="443" y="-683.8" font-family="DejaVu Sans" font-size="14.00" fill="grey">Everything needed to get raw data into shape</text>
</g>
<g id="clust2" class="cluster">
<title>cluster_Cleaning</title>
<path fill="#ccccde" stroke="grey" stroke-dasharray="5,2" d="M275,-367C275,-367 611,-367 611,-367 617,-367 623,-373 623,-379 623,-379 623,-612 623,-612 623,-618 617,-624 611,-624 611,-624 275,-624 275,-624 269,-624 263,-618 263,-612 263,-612 263,-379 263,-379 263,-373 269,-367 275,-367"/>
<text text-anchor="middle" x="443" y="-608.8" font-family="DejaVu Sans" font-size="14.00" fill="grey">Cleaning</text>
</g>
<g id="clust3" class="cluster">
<title>cluster_Feature_Engineering</title>
<path fill="#ccccde" stroke="grey" stroke-dasharray="5,2" d="M322,-284C322,-284 564,-284 564,-284 570,-284 576,-290 576,-296 576,-296 576,-347 576,-347 576,-353 570,-359 564,-359 564,-359 322,-359 322,-359 316,-359 310,-353 310,-347 310,-347 310,-296 310,-296 310,-290 316,-284 322,-284"/>
<text text-anchor="middle" x="443" y="-343.8" font-family="DejaVu Sans" font-size="14.00" fill="grey">Feature Engineering</text>
</g>
<g id="clust4" class="cluster">
<title>cluster_Modeling</title>
<path fill="#e6e6fa" stroke="grey" stroke-dasharray="5,2" d="M20,-64C20,-64 549,-64 549,-64 555,-64 561,-70 561,-76 561,-76 561,-256 561,-256 561,-262 555,-268 549,-268 549,-268 20,-268 20,-268 14,-268 8,-262 8,-256 8,-256 8,-76 8,-76 8,-70 14,-64 20,-64"/>
<text text-anchor="middle" x="284.5" y="-252.8" font-family="DejaVu Sans" font-size="14.00" fill="grey">Modeling</text>
<text text-anchor="middle" x="284.5" y="-237.8" font-family="DejaVu Sans" font-size="14.00" fill="grey">Train &amp; evaluate models</text>
</g>
<!-- Load Data -->
<g id="node1" class="node">
<title>Load Data</title>
<path fill="azure" stroke="black" stroke-width="2" d="M518,-668C518,-668 368,-668 368,-668 362,-668 356,-662 356,-656 356,-656 356,-644 356,-644 356,-638 362,-632 368,-632 368,-632 518,-632 518,-632 524,-632 530,-638 530,-644 530,-644 530,-656 530,-656 530,-662 524,-668 518,-668"/>
<text text-anchor="start" x="366" y="-645.8" font-family="DejaVu Sans" font-size="14.00">Load CSVs and merge</text>
</g>
<!-- Clean Data -->
<g id="node2" class="node">
<title>Clean Data</title>
<path fill="azure" stroke="black" stroke-width="2" d="M603.5,-593C603.5,-593 282.5,-593 282.5,-593 276.5,-593 270.5,-587 270.5,-581 270.5,-581 270.5,-459 270.5,-459 270.5,-453 276.5,-447 282.5,-447 282.5,-447 603.5,-447 603.5,-447 609.5,-447 615.5,-453 615.5,-459 615.5,-459 615.5,-581 615.5,-581 615.5,-587 609.5,-593 603.5,-593"/>
<polygon fill="#f8ec99" stroke="transparent" points="281,-572 281,-587 606,-587 606,-572 281,-572"/>
<text text-anchor="start" x="328.5" y="-576.8" font-family="DejaVu Sans" font-weight="bold" font-size="14.00">Step: Clean nulls and outliers</text>
<text text-anchor="start" x="281" y="-558.8" font-family="DejaVu Sans" font-size="14.00"> </text>
<text text-anchor="start" x="281" y="-542.8" font-family="DejaVu Sans" font-style="italic" font-size="14.00">Description: Remove any NaNs and clip values</text>
<text text-anchor="start" x="281" y="-525.8" font-family="DejaVu Sans" font-style="italic" font-size="14.00">outside [0,100].</text>
<text text-anchor="start" x="281" y="-507.8" font-family="DejaVu Sans" font-size="14.00"> </text>
<text text-anchor="start" x="281" y="-490.8" font-family="DejaVu Sans" font-size="14.00">☐ Drop rows where &gt;50% features are NaN</text>
<text text-anchor="start" x="281" y="-473.8" font-family="DejaVu Sans" font-size="14.00">☑ Impute small gaps with median</text>
<text text-anchor="start" x="281" y="-456.8" font-family="DejaVu Sans" font-size="14.00">⚠ Watch out for negative values in sensor A.</text>
</g>
<!-- Load Data&#45;&gt;Clean Data -->
<g id="edge1" class="edge">
<title>Load Data&#45;&gt;Clean Data</title>
<path fill="none" stroke="black" d="M443,-631.74C443,-623.85 443,-613.88 443,-603.16"/>
<polygon fill="black" stroke="black" points="446.5,-603.16 443,-593.16 439.5,-603.16 446.5,-603.16"/>
</g>
<!-- Log Issues -->
<g id="node3" class="node">
<title>Log Issues</title>
<path fill="azure" stroke="black" stroke-width="2" d="M570,-411C570,-411 316,-411 316,-411 310,-411 304,-405 304,-399 304,-399 304,-387 304,-387 304,-381 310,-375 316,-375 316,-375 570,-375 570,-375 576,-375 582,-381 582,-387 582,-387 582,-399 582,-399 582,-405 576,-411 570,-411"/>
<text text-anchor="start" x="314" y="-388.8" font-family="DejaVu Sans" font-size="14.00">⚠ Save a report of any dropped rows</text>
</g>
<!-- Clean Data&#45;&gt;Log Issues -->
<g id="edge2" class="edge">
<title>Clean Data&#45;&gt;Log Issues</title>
<path fill="none" stroke="black" d="M443,-446.65C443,-437.69 443,-429.02 443,-421.38"/>
<polygon fill="black" stroke="black" points="446.5,-421.35 443,-411.35 439.5,-421.35 446.5,-421.35"/>
</g>
<!-- Engineer Features -->
<g id="node4" class="node">
<title>Engineer Features</title>
<path fill="azure" stroke="black" stroke-width="2" d="M555.5,-328C555.5,-328 330.5,-328 330.5,-328 324.5,-328 318.5,-322 318.5,-316 318.5,-316 318.5,-304 318.5,-304 318.5,-298 324.5,-292 330.5,-292 330.5,-292 555.5,-292 555.5,-292 561.5,-292 567.5,-298 567.5,-304 567.5,-304 567.5,-316 567.5,-316 567.5,-322 561.5,-328 555.5,-328"/>
<text text-anchor="start" x="329" y="-305.8" font-family="DejaVu Sans" font-size="14.00">☐ Create rolling&#45;window features</text>
</g>
<!-- Log Issues&#45;&gt;Engineer Features -->
<g id="edge3" class="edge">
<title>Log Issues&#45;&gt;Engineer Features</title>
<path fill="none" stroke="black" d="M443,-374.82C443,-364.19 443,-350.31 443,-338.2"/>
<polygon fill="black" stroke="black" points="446.5,-338.15 443,-328.15 439.5,-338.15 446.5,-338.15"/>
</g>
<!-- Train Model -->
<g id="node5" class="node">
<title>Train Model</title>
<path fill="azure" stroke="black" stroke-width="2" d="M541,-222C541,-222 345,-222 345,-222 339,-222 333,-216 333,-210 333,-210 333,-198 333,-198 333,-192 339,-186 345,-186 345,-186 541,-186 541,-186 547,-186 553,-192 553,-198 553,-198 553,-210 553,-210 553,-216 547,-222 541,-222"/>
<text text-anchor="start" x="343" y="-199.8" font-family="DejaVu Sans" font-size="14.00">Fit random forest (100 trees)</text>
</g>
<!-- Engineer Features&#45;&gt;Train Model -->
<g id="edge4" class="edge">
<title>Engineer Features&#45;&gt;Train Model</title>
<path fill="none" stroke="black" d="M443,-291.83C443,-275.64 443,-251.13 443,-232.27"/>
<polygon fill="black" stroke="black" points="446.5,-232.2 443,-222.2 439.5,-232.2 446.5,-232.2"/>
</g>
<!-- Evaluate on Test -->
<g id="node6" class="node">
<title>Evaluate on Test</title>
<path fill="azure" stroke="black" stroke-width="2" d="M328,-150C328,-150 28,-150 28,-150 22,-150 16,-144 16,-138 16,-138 16,-84 16,-84 16,-78 22,-72 28,-72 28,-72 328,-72 328,-72 334,-72 340,-78 340,-84 340,-84 340,-138 340,-138 340,-144 334,-150 328,-150"/>
<polygon fill="#f8ec99" stroke="transparent" points="26,-129 26,-144 330,-144 330,-129 26,-129"/>
<text text-anchor="start" x="120.5" y="-133.8" font-family="DejaVu Sans" font-weight="bold" font-size="14.00">Step: Evaluate</text>
<text text-anchor="start" x="26" y="-115.8" font-family="DejaVu Sans" font-size="14.00"> </text>
<text text-anchor="start" x="26" y="-99.8" font-family="DejaVu Sans" font-style="italic" font-size="14.00">Description: Compute accuracy &amp; ROC&#45;AUC</text>
<text text-anchor="start" x="26" y="-81.8" font-family="DejaVu Sans" font-size="14.00"> </text>
</g>
<!-- Train Model&#45;&gt;Evaluate on Test -->
<g id="edge5" class="edge">
<title>Train Model&#45;&gt;Evaluate on Test</title>
<path fill="none" stroke="black" d="M393.47,-185.99C366.61,-176.77 332.13,-164.93 298.68,-153.44"/>
<polygon fill="black" stroke="black" points="299.4,-149.99 288.81,-150.05 297.13,-156.61 299.4,-149.99"/>
</g>
<!-- Generate Report -->
<g id="node7" class="node">
<title>Generate Report</title>
<path fill="azure" stroke="black" stroke-width="2" d="M541.5,-129C541.5,-129 370.5,-129 370.5,-129 364.5,-129 358.5,-123 358.5,-117 358.5,-117 358.5,-105 358.5,-105 358.5,-99 364.5,-93 370.5,-93 370.5,-93 541.5,-93 541.5,-93 547.5,-93 553.5,-99 553.5,-105 553.5,-105 553.5,-117 553.5,-117 553.5,-123 547.5,-129 541.5,-129"/>
<text text-anchor="start" x="369" y="-106.8" font-family="DejaVu Sans" font-size="14.00">☐ Produce PDF summary</text>
</g>
<!-- Train Model&#45;&gt;Generate Report -->
<g id="edge6" class="edge">
<title>Train Model&#45;&gt;Generate Report</title>
<path fill="none" stroke="black" d="M445.45,-185.88C447.32,-172.79 449.93,-154.48 452.09,-139.36"/>
<polygon fill="black" stroke="black" points="455.62,-139.43 453.57,-129.04 448.69,-138.44 455.62,-139.43"/>
</g>
<!-- Deploy -->
<g id="node8" class="node">
<title>Deploy</title>
<path fill="azure" stroke="black" stroke-width="2" d="M624.5,-129C624.5,-129 583.5,-129 583.5,-129 577.5,-129 571.5,-123 571.5,-117 571.5,-117 571.5,-105 571.5,-105 571.5,-99 577.5,-93 583.5,-93 583.5,-93 624.5,-93 624.5,-93 630.5,-93 636.5,-99 636.5,-105 636.5,-105 636.5,-117 636.5,-117 636.5,-123 630.5,-129 624.5,-129"/>
<text text-anchor="middle" x="604" y="-107.3" font-family="DejaVu Sans" font-size="14.00">Deploy</text>
</g>
<!-- Train Model&#45;&gt;Deploy -->
<g id="edge7" class="edge">
<title>Train Model&#45;&gt;Deploy</title>
<path fill="none" stroke="black" d="M493.19,-185.95C516.09,-177 542.95,-164.8 565,-150 570.8,-146.11 576.5,-141.29 581.68,-136.42"/>
<polygon fill="black" stroke="black" points="584.2,-138.85 588.84,-129.33 579.27,-133.88 584.2,-138.85"/>
</g>
<!-- Notify Stakeholders -->
<g id="node9" class="node">
<title>Notify Stakeholders</title>
<path fill="azure" stroke="black" stroke-width="2" d="M528,-36C528,-36 384,-36 384,-36 378,-36 372,-30 372,-24 372,-24 372,-12 372,-12 372,-6 378,0 384,0 384,0 528,0 528,0 534,0 540,-6 540,-12 540,-12 540,-24 540,-24 540,-30 534,-36 528,-36"/>
<text text-anchor="start" x="382" y="-13.8" font-family="DejaVu Sans" font-size="14.00">☑ Email sent to team</text>
</g>
<!-- Generate Report&#45;&gt;Notify Stakeholders -->
<g id="edge8" class="edge">
<title>Generate Report&#45;&gt;Notify Stakeholders</title>
<path fill="none" stroke="black" d="M456,-92.88C456,-79.79 456,-61.48 456,-46.36"/>
<polygon fill="black" stroke="black" points="459.5,-46.04 456,-36.04 452.5,-46.04 459.5,-46.04"/>
</g>
</g>
</svg>
