<?xml version="1.0" encoding="UTF-8" standalone="no"?>
<!DOCTYPE svg PUBLIC "-//W3C//DTD SVG 1.1//EN"
 "http://www.w3.org/Graphics/SVG/1.1/DTD/svg11.dtd">
<!-- Generated by graphviz version 2.50.0 (0)
 -->
<!-- Pages: 1 -->
<svg width="777pt" height="2406pt"
 viewBox="0.00 0.00 777.00 2406.00" xmlns="http://www.w3.org/2000/svg" xmlns:xlink="http://www.w3.org/1999/xlink">
<g id="graph0" class="graph" transform="scale(1 1) rotate(0) translate(4 2402)">
<polygon fill="white" stroke="transparent" points="-4,4 -4,-2402 773,-2402 773,4 -4,4"/>
<g id="clust1" class="cluster">
<title>cluster_Requirements_&amp;_Planning</title>
<path fill="#e6e6fa" stroke="grey" stroke-dasharray="5,2" d="M86,-1959C86,-1959 392,-1959 392,-1959 398,-1959 404,-1965 404,-1971 404,-1971 404,-2378 404,-2378 404,-2384 398,-2390 392,-2390 392,-2390 86,-2390 86,-2390 80,-2390 74,-2384 74,-2378 74,-2378 74,-1971 74,-1971 74,-1965 80,-1959 86,-1959"/>
<text text-anchor="middle" x="239" y="-2374.8" font-family="DejaVu Sans" font-size="14.00" fill="grey">Requirements &amp; Planning</text>
<text text-anchor="middle" x="239" y="-2359.8" font-family="DejaVu Sans" font-size="14.00" fill="grey">Define scope, user stories, and technical</text>
<text text-anchor="middle" x="239" y="-2344.8" font-family="DejaVu Sans" font-size="14.00" fill="grey">specifications</text>
</g>
<g id="clust2" class="cluster">
<title>cluster_Architecture_Design</title>
<path fill="#e6e6fa" stroke="grey" stroke-dasharray="5,2" d="M20,-1751C20,-1751 749,-1751 749,-1751 755,-1751 761,-1757 761,-1763 761,-1763 761,-1939 761,-1939 761,-1945 755,-1951 749,-1951 749,-1951 20,-1951 20,-1951 14,-1951 8,-1945 8,-1939 8,-1939 8,-1763 8,-1763 8,-1757 14,-1751 20,-1751"/>
<text text-anchor="middle" x="384.5" y="-1935.8" font-family="DejaVu Sans" font-size="14.00" fill="grey">Architecture Design</text>
<text text-anchor="middle" x="384.5" y="-1920.8" font-family="DejaVu Sans" font-size="14.00" fill="grey">High&#45;level modules and interactions</text>
</g>
<g id="clust3" class="cluster">
<title>cluster_Implementation</title>
<path fill="#e6e6fa" stroke="grey" stroke-dasharray="5,2" d="M397,-1032C397,-1032 739,-1032 739,-1032 745,-1032 751,-1038 751,-1044 751,-1044 751,-1731 751,-1731 751,-1737 745,-1743 739,-1743 739,-1743 397,-1743 397,-1743 391,-1743 385,-1737 385,-1731 385,-1731 385,-1044 385,-1044 385,-1038 391,-1032 397,-1032"/>
<text text-anchor="middle" x="568" y="-1727.8" font-family="DejaVu Sans" font-size="14.00" fill="grey">Implementation</text>
<text text-anchor="middle" x="568" y="-1712.8" font-family="DejaVu Sans" font-size="14.00" fill="grey">Write, integrate, and test code modules</text>
</g>
<g id="clust4" class="cluster">
<title>cluster_Core_Module</title>
<path fill="#ccccde" stroke="grey" stroke-dasharray="5,2" d="M405,-1313C405,-1313 731,-1313 731,-1313 737,-1313 743,-1319 743,-1325 743,-1325 743,-1685 743,-1685 743,-1691 737,-1697 731,-1697 731,-1697 405,-1697 405,-1697 399,-1697 393,-1691 393,-1685 393,-1685 393,-1325 393,-1325 393,-1319 399,-1313 405,-1313"/>
<text text-anchor="middle" x="568" y="-1681.8" font-family="DejaVu Sans" font-size="14.00" fill="grey">Core Module</text>
</g>
<g id="clust5" class="cluster">
<title>cluster_I/O_Module</title>
<path fill="#ccccde" stroke="grey" stroke-dasharray="5,2" d="M442,-1040C442,-1040 694,-1040 694,-1040 700,-1040 706,-1046 706,-1052 706,-1052 706,-1293 706,-1293 706,-1299 700,-1305 694,-1305 694,-1305 442,-1305 442,-1305 436,-1305 430,-1299 430,-1293 430,-1293 430,-1052 430,-1052 430,-1046 436,-1040 442,-1040"/>
<text text-anchor="middle" x="568" y="-1289.8" font-family="DejaVu Sans" font-size="14.00" fill="grey">I/O Module</text>
</g>
<g id="clust6" class="cluster">
<title>cluster_Simulation_Pipeline</title>
<path fill="#e6e6fa" stroke="grey" stroke-dasharray="5,2" d="M401,-364C401,-364 735,-364 735,-364 741,-364 747,-370 747,-376 747,-376 747,-1012 747,-1012 747,-1018 741,-1024 735,-1024 735,-1024 401,-1024 401,-1024 395,-1024 389,-1018 389,-1012 389,-1012 389,-376 389,-376 389,-370 395,-364 401,-364"/>
<text text-anchor="middle" x="568" y="-1008.8" font-family="DejaVu Sans" font-size="14.00" fill="grey">Simulation Pipeline</text>
<text text-anchor="middle" x="568" y="-993.8" font-family="DejaVu Sans" font-size="14.00" fill="grey">Configure and run batch simulations</text>
</g>
<g id="clust7" class="cluster">
<title>cluster_Model_Config</title>
<path fill="#ccccde" stroke="grey" stroke-dasharray="5,2" d="M409,-679C409,-679 727,-679 727,-679 733,-679 739,-685 739,-691 739,-691 739,-966 739,-966 739,-972 733,-978 727,-978 727,-978 409,-978 409,-978 403,-978 397,-972 397,-966 397,-966 397,-691 397,-691 397,-685 403,-679 409,-679"/>
<text text-anchor="middle" x="568" y="-962.8" font-family="DejaVu Sans" font-size="14.00" fill="grey">Model Config</text>
</g>
<g id="clust8" class="cluster">
<title>cluster_Execution_Engine</title>
<path fill="#ccccde" stroke="grey" stroke-dasharray="5,2" d="M425,-372C425,-372 711,-372 711,-372 717,-372 723,-378 723,-384 723,-384 723,-659 723,-659 723,-665 717,-671 711,-671 711,-671 425,-671 425,-671 419,-671 413,-665 413,-659 413,-659 413,-384 413,-384 413,-378 419,-372 425,-372"/>
<text text-anchor="middle" x="568" y="-655.8" font-family="DejaVu Sans" font-size="14.00" fill="grey">Execution Engine</text>
</g>
<g id="clust9" class="cluster">
<title>cluster_Post&#45;Processing</title>
<path fill="#e6e6fa" stroke="grey" stroke-dasharray="5,2" d="M443,-8C443,-8 693,-8 693,-8 699,-8 705,-14 705,-20 705,-20 705,-344 705,-344 705,-350 699,-356 693,-356 693,-356 443,-356 443,-356 437,-356 431,-350 431,-344 431,-344 431,-20 431,-20 431,-14 437,-8 443,-8"/>
<text text-anchor="middle" x="568" y="-340.8" font-family="DejaVu Sans" font-size="14.00" fill="grey">Post&#45;Processing</text>
<text text-anchor="middle" x="568" y="-325.8" font-family="DejaVu Sans" font-size="14.00" fill="grey">Analyze results and generate reports</text>
</g>
<!-- Gather User Stories -->
<g id="node1" class="node">
<title>Gather User Stories</title>
<path fill="azure" stroke="black" stroke-width="2" d="M379,-2329C379,-2329 109,-2329 109,-2329 103,-2329 97,-2323 97,-2317 97,-2317 97,-2178 97,-2178 97,-2172 103,-2166 109,-2166 109,-2166 379,-2166 379,-2166 385,-2166 391,-2172 391,-2178 391,-2178 391,-2317 391,-2317 391,-2323 385,-2329 379,-2329"/>
<polygon fill="#a1ddb2" stroke="transparent" points="107,-2307.5 107,-2322.5 381,-2322.5 381,-2307.5 107,-2307.5"/>
<text text-anchor="start" x="173" y="-2312.3" font-family="DejaVu Sans" font-weight="bold" font-size="14.00">Step: User Stories</text>
<text text-anchor="start" x="107" y="-2294.3" font-family="DejaVu Sans" font-size="14.00"> </text>
<text text-anchor="start" x="107" y="-2278.3" font-family="DejaVu Sans" font-style="italic" font-size="14.00">Description: Interview research team &amp;</text>
<text text-anchor="start" x="107" y="-2261.3" font-family="DejaVu Sans" font-style="italic" font-size="14.00">clinicians</text>
<text text-anchor="start" x="107" y="-2243.3" font-family="DejaVu Sans" font-size="14.00"> </text>
<text text-anchor="start" x="107" y="-2226.3" font-family="DejaVu Sans" font-size="14.00">☑ Initial interviews done</text>
<text text-anchor="start" x="107" y="-2209.3" font-family="DejaVu Sans" font-size="14.00">☑ Consolidate feedback</text>
<text text-anchor="start" x="107" y="-2192.3" font-family="DejaVu Sans" font-size="14.00">☑ Prioritize features</text>
<text text-anchor="start" x="107" y="-2175.3" font-family="DejaVu Sans" font-size="14.00">⚠ All user requirements captured.</text>
</g>
<!-- Draft Technical Spec -->
<g id="node2" class="node">
<title>Draft Technical Spec</title>
<path fill="azure" stroke="black" stroke-width="2" d="M383.5,-2130C383.5,-2130 94.5,-2130 94.5,-2130 88.5,-2130 82.5,-2124 82.5,-2118 82.5,-2118 82.5,-1979 82.5,-1979 82.5,-1973 88.5,-1967 94.5,-1967 94.5,-1967 383.5,-1967 383.5,-1967 389.5,-1967 395.5,-1973 395.5,-1979 395.5,-1979 395.5,-2118 395.5,-2118 395.5,-2124 389.5,-2130 383.5,-2130"/>
<polygon fill="#a1ddb2" stroke="transparent" points="93,-2108.5 93,-2123.5 386,-2123.5 386,-2108.5 93,-2108.5"/>
<text text-anchor="start" x="177.5" y="-2113.3" font-family="DejaVu Sans" font-weight="bold" font-size="14.00">Step: Tech Spec</text>
<text text-anchor="start" x="93" y="-2095.3" font-family="DejaVu Sans" font-size="14.00"> </text>
<text text-anchor="start" x="93" y="-2079.3" font-family="DejaVu Sans" font-style="italic" font-size="14.00">Description: Document APIs, data models,</text>
<text text-anchor="start" x="93" y="-2062.3" font-family="DejaVu Sans" font-style="italic" font-size="14.00">simulation requirements</text>
<text text-anchor="start" x="93" y="-2044.3" font-family="DejaVu Sans" font-size="14.00"> </text>
<text text-anchor="start" x="93" y="-2027.3" font-family="DejaVu Sans" font-size="14.00">☑ Define data schema</text>
<text text-anchor="start" x="93" y="-2010.3" font-family="DejaVu Sans" font-size="14.00">☑ Specify performance targets</text>
<text text-anchor="start" x="93" y="-1993.3" font-family="DejaVu Sans" font-size="14.00">☑ Outline error&#45;handling</text>
<text text-anchor="start" x="93" y="-1976.3" font-family="DejaVu Sans" font-size="14.00">⚠ Spec ready for review.</text>
</g>
<!-- Gather User Stories&#45;&gt;Draft Technical Spec -->
<g id="edge1" class="edge">
<title>Gather User Stories&#45;&gt;Draft Technical Spec</title>
<path fill="none" stroke="black" d="M241.95,-2165.8C241.74,-2157.33 241.52,-2148.67 241.3,-2140.09"/>
<polygon fill="black" stroke="black" points="244.8,-2139.98 241.04,-2130.07 237.8,-2140.16 244.8,-2139.98"/>
</g>
<!-- Select Technology Stack -->
<g id="node4" class="node">
<title>Select Technology Stack</title>
<path fill="azure" stroke="black" stroke-width="2" d="M740.5,-1905C740.5,-1905 395.5,-1905 395.5,-1905 389.5,-1905 383.5,-1899 383.5,-1893 383.5,-1893 383.5,-1771 383.5,-1771 383.5,-1765 389.5,-1759 395.5,-1759 395.5,-1759 740.5,-1759 740.5,-1759 746.5,-1759 752.5,-1765 752.5,-1771 752.5,-1771 752.5,-1893 752.5,-1893 752.5,-1899 746.5,-1905 740.5,-1905"/>
<polygon fill="#ff8080" stroke="transparent" points="394,-1884 394,-1899 743,-1899 743,-1884 394,-1884"/>
<text text-anchor="start" x="503.5" y="-1888.8" font-family="DejaVu Sans" font-weight="bold" font-size="14.00">Step: Tech Stack</text>
<text text-anchor="start" x="394" y="-1870.8" font-family="DejaVu Sans" font-size="14.00"> </text>
<text text-anchor="start" x="394" y="-1854.8" font-family="DejaVu Sans" font-style="italic" font-size="14.00">Description: Choose languages, frameworks, tools</text>
<text text-anchor="start" x="394" y="-1836.8" font-family="DejaVu Sans" font-size="14.00"> </text>
<text text-anchor="start" x="394" y="-1819.8" font-family="DejaVu Sans" font-size="14.00">☐ Python core</text>
<text text-anchor="start" x="394" y="-1802.8" font-family="DejaVu Sans" font-size="14.00">☐ C++ extensions</text>
<text text-anchor="start" x="394" y="-1785.8" font-family="DejaVu Sans" font-size="14.00">☐ Qt or web UI</text>
<text text-anchor="start" x="394" y="-1768.8" font-family="DejaVu Sans" font-size="14.00">⚠ Finalize stack by next sprint.</text>
</g>
<!-- Gather User Stories&#45;&gt;Select Technology Stack -->
<g id="edge3" class="edge">
<title>Gather User Stories&#45;&gt;Select Technology Stack</title>
<path fill="none" stroke="black" d="M368.03,-2165.69C381.27,-2154.52 393.93,-2142.55 405,-2130 461.95,-2065.49 507.04,-1977.71 535.23,-1914.33"/>
<polygon fill="black" stroke="black" points="538.44,-1915.72 539.27,-1905.16 532.03,-1912.9 538.44,-1915.72"/>
</g>
<!-- Define Modules -->
<g id="node3" class="node">
<title>Define Modules</title>
<path fill="azure" stroke="black" stroke-width="2" d="M353.5,-1905C353.5,-1905 28.5,-1905 28.5,-1905 22.5,-1905 16.5,-1899 16.5,-1893 16.5,-1893 16.5,-1771 16.5,-1771 16.5,-1765 22.5,-1759 28.5,-1759 28.5,-1759 353.5,-1759 353.5,-1759 359.5,-1759 365.5,-1765 365.5,-1771 365.5,-1771 365.5,-1893 365.5,-1893 365.5,-1899 359.5,-1905 353.5,-1905"/>
<polygon fill="#f8ec99" stroke="transparent" points="27,-1884 27,-1899 356,-1899 356,-1884 27,-1884"/>
<text text-anchor="start" x="135.5" y="-1888.8" font-family="DejaVu Sans" font-weight="bold" font-size="14.00">Step: Modules</text>
<text text-anchor="start" x="27" y="-1870.8" font-family="DejaVu Sans" font-size="14.00"> </text>
<text text-anchor="start" x="27" y="-1854.8" font-family="DejaVu Sans" font-style="italic" font-size="14.00">Description: Decompose into Core, I/O, Utils, UI</text>
<text text-anchor="start" x="27" y="-1836.8" font-family="DejaVu Sans" font-size="14.00"> </text>
<text text-anchor="start" x="27" y="-1819.8" font-family="DejaVu Sans" font-size="14.00">☑ Core engine defined</text>
<text text-anchor="start" x="27" y="-1802.8" font-family="DejaVu Sans" font-size="14.00">☐ I/O interfaces outlined</text>
<text text-anchor="start" x="27" y="-1785.8" font-family="DejaVu Sans" font-size="14.00">☐ Visualization draft</text>
<text text-anchor="start" x="27" y="-1768.8" font-family="DejaVu Sans" font-size="14.00">⚠ Pending I/O and UI details.</text>
</g>
<!-- Draft Technical Spec&#45;&gt;Define Modules -->
<g id="edge2" class="edge">
<title>Draft Technical Spec&#45;&gt;Define Modules</title>
<path fill="none" stroke="black" d="M220.92,-1966.71C217.15,-1949.84 213.16,-1932.03 209.37,-1915.1"/>
<polygon fill="black" stroke="black" points="212.77,-1914.25 207.17,-1905.25 205.94,-1915.78 212.77,-1914.25"/>
</g>
<!-- Core Development -->
<g id="node5" class="node">
<title>Core Development</title>
<path fill="azure" stroke="black" stroke-width="2" d="M722.5,-1666C722.5,-1666 413.5,-1666 413.5,-1666 407.5,-1666 401.5,-1660 401.5,-1654 401.5,-1654 401.5,-1515 401.5,-1515 401.5,-1509 407.5,-1503 413.5,-1503 413.5,-1503 722.5,-1503 722.5,-1503 728.5,-1503 734.5,-1509 734.5,-1515 734.5,-1515 734.5,-1654 734.5,-1654 734.5,-1660 728.5,-1666 722.5,-1666"/>
<polygon fill="#ff8080" stroke="transparent" points="412,-1644.5 412,-1659.5 725,-1659.5 725,-1644.5 412,-1644.5"/>
<text text-anchor="start" x="509.5" y="-1649.3" font-family="DejaVu Sans" font-weight="bold" font-size="14.00">Step: Core Dev</text>
<text text-anchor="start" x="412" y="-1631.3" font-family="DejaVu Sans" font-size="14.00"> </text>
<text text-anchor="start" x="412" y="-1615.3" font-family="DejaVu Sans" font-style="italic" font-size="14.00">Description: Implement simulation loop, data</text>
<text text-anchor="start" x="412" y="-1598.3" font-family="DejaVu Sans" font-style="italic" font-size="14.00">structures</text>
<text text-anchor="start" x="412" y="-1580.3" font-family="DejaVu Sans" font-size="14.00"> </text>
<text text-anchor="start" x="412" y="-1563.3" font-family="DejaVu Sans" font-size="14.00">☐ Loop skeleton</text>
<text text-anchor="start" x="412" y="-1546.3" font-family="DejaVu Sans" font-size="14.00">☐ State management</text>
<text text-anchor="start" x="412" y="-1529.3" font-family="DejaVu Sans" font-size="14.00">☐ Configuration parsing</text>
<text text-anchor="start" x="412" y="-1512.3" font-family="DejaVu Sans" font-size="14.00">⚠ Use abstract classes.</text>
</g>
<!-- Select Technology Stack&#45;&gt;Core Development -->
<g id="edge4" class="edge">
<title>Select Technology Stack&#45;&gt;Core Development</title>
<path fill="none" stroke="black" d="M568,-1758.67C568,-1732.96 568,-1703.68 568,-1676.6"/>
<polygon fill="black" stroke="black" points="571.5,-1676.34 568,-1666.34 564.5,-1676.34 571.5,-1676.34"/>
</g>
<!-- Core Testing -->
<g id="node6" class="node">
<title>Core Testing</title>
<path fill="azure" stroke="black" stroke-width="2" d="M718,-1467C718,-1467 418,-1467 418,-1467 412,-1467 406,-1461 406,-1455 406,-1455 406,-1333 406,-1333 406,-1327 412,-1321 418,-1321 418,-1321 718,-1321 718,-1321 724,-1321 730,-1327 730,-1333 730,-1333 730,-1455 730,-1455 730,-1461 724,-1467 718,-1467"/>
<polygon fill="#a1ddb2" stroke="transparent" points="416,-1446 416,-1461 720,-1461 720,-1446 416,-1446"/>
<text text-anchor="start" x="504" y="-1450.8" font-family="DejaVu Sans" font-weight="bold" font-size="14.00">Step: Core Tests</text>
<text text-anchor="start" x="416" y="-1432.8" font-family="DejaVu Sans" font-size="14.00"> </text>
<text text-anchor="start" x="416" y="-1416.8" font-family="DejaVu Sans" font-style="italic" font-size="14.00">Description: Unit tests for core components</text>
<text text-anchor="start" x="416" y="-1398.8" font-family="DejaVu Sans" font-size="14.00"> </text>
<text text-anchor="start" x="416" y="-1381.8" font-family="DejaVu Sans" font-size="14.00">☑ Scheduler tests</text>
<text text-anchor="start" x="416" y="-1364.8" font-family="DejaVu Sans" font-size="14.00">☑ Data integrity tests</text>
<text text-anchor="start" x="416" y="-1347.8" font-family="DejaVu Sans" font-size="14.00">☑ Config load tests</text>
<text text-anchor="start" x="416" y="-1330.8" font-family="DejaVu Sans" font-size="14.00">⚠ Core test suite passing.</text>
</g>
<!-- Core Development&#45;&gt;Core Testing -->
<g id="edge5" class="edge">
<title>Core Development&#45;&gt;Core Testing</title>
<path fill="none" stroke="black" d="M568,-1502.74C568,-1494.36 568,-1485.83 568,-1477.43"/>
<polygon fill="black" stroke="black" points="571.5,-1477.26 568,-1467.26 564.5,-1477.26 571.5,-1477.26"/>
</g>
<!-- I/O Handlers -->
<g id="node7" class="node">
<title>I/O Handlers</title>
<path fill="azure" stroke="black" stroke-width="2" d="M659.5,-1274C659.5,-1274 476.5,-1274 476.5,-1274 470.5,-1274 464.5,-1268 464.5,-1262 464.5,-1262 464.5,-1174 464.5,-1174 464.5,-1168 470.5,-1162 476.5,-1162 476.5,-1162 659.5,-1162 659.5,-1162 665.5,-1162 671.5,-1168 671.5,-1174 671.5,-1174 671.5,-1262 671.5,-1262 671.5,-1268 665.5,-1274 659.5,-1274"/>
<polygon fill="#f8ec99" stroke="transparent" points="475,-1253 475,-1268 662,-1268 662,-1253 475,-1253"/>
<text text-anchor="start" x="534" y="-1257.8" font-family="DejaVu Sans" font-weight="bold" font-size="14.00">Step: I/O</text>
<text text-anchor="start" x="475" y="-1239.8" font-family="DejaVu Sans" font-size="14.00"> </text>
<text text-anchor="start" x="475" y="-1222.8" font-family="DejaVu Sans" font-size="14.00">☐ CSV reader</text>
<text text-anchor="start" x="475" y="-1205.8" font-family="DejaVu Sans" font-size="14.00">☐ HDF5 checkpoint</text>
<text text-anchor="start" x="475" y="-1188.8" font-family="DejaVu Sans" font-size="14.00">☑ JSON config parser</text>
<text text-anchor="start" x="475" y="-1171.8" font-family="DejaVu Sans" font-size="14.00">⚠ Complete JSON support.</text>
</g>
<!-- Core Testing&#45;&gt;I/O Handlers -->
<g id="edge6" class="edge">
<title>Core Testing&#45;&gt;I/O Handlers</title>
<path fill="none" stroke="black" d="M568,-1320.97C568,-1308.9 568,-1296.42 568,-1284.52"/>
<polygon fill="black" stroke="black" points="571.5,-1284.24 568,-1274.24 564.5,-1284.24 571.5,-1284.24"/>
</g>
<!-- I/O Validation -->
<g id="node8" class="node">
<title>I/O Validation</title>
<path fill="azure" stroke="black" stroke-width="2" d="M685.5,-1126C685.5,-1126 450.5,-1126 450.5,-1126 444.5,-1126 438.5,-1120 438.5,-1114 438.5,-1114 438.5,-1060 438.5,-1060 438.5,-1054 444.5,-1048 450.5,-1048 450.5,-1048 685.5,-1048 685.5,-1048 691.5,-1048 697.5,-1054 697.5,-1060 697.5,-1060 697.5,-1114 697.5,-1114 697.5,-1120 691.5,-1126 685.5,-1126"/>
<text text-anchor="start" x="449" y="-1108.8" font-family="DejaVu Sans" font-size="14.00">Task: Validate I/O</text>
<text text-anchor="start" x="449" y="-1091.8" font-family="DejaVu Sans" font-size="14.00">☐ Roundtrip tests</text>
<text text-anchor="start" x="449" y="-1074.8" font-family="DejaVu Sans" font-size="14.00">☐ Performance benchmark</text>
<text text-anchor="start" x="449" y="-1057.8" font-family="DejaVu Sans" font-size="14.00">⚠ Ensure throughput &gt; 100 MB/s.</text>
</g>
<!-- I/O Handlers&#45;&gt;I/O Validation -->
<g id="edge7" class="edge">
<title>I/O Handlers&#45;&gt;I/O Validation</title>
<path fill="none" stroke="black" d="M568,-1161.92C568,-1153.35 568,-1144.55 568,-1136.16"/>
<polygon fill="black" stroke="black" points="571.5,-1136.15 568,-1126.15 564.5,-1136.15 571.5,-1136.15"/>
</g>
<!-- Parameter Setup -->
<g id="node9" class="node">
<title>Parameter Setup</title>
<path fill="azure" stroke="black" stroke-width="2" d="M719,-947C719,-947 417,-947 417,-947 411,-947 405,-941 405,-935 405,-935 405,-813 405,-813 405,-807 411,-801 417,-801 417,-801 719,-801 719,-801 725,-801 731,-807 731,-813 731,-813 731,-935 731,-935 731,-941 725,-947 719,-947"/>
<polygon fill="#ff8080" stroke="transparent" points="415,-926 415,-941 721,-941 721,-926 415,-926"/>
<text text-anchor="start" x="494.5" y="-930.8" font-family="DejaVu Sans" font-weight="bold" font-size="14.00">Step: Param Setup</text>
<text text-anchor="start" x="415" y="-912.8" font-family="DejaVu Sans" font-size="14.00"> </text>
<text text-anchor="start" x="415" y="-896.8" font-family="DejaVu Sans" font-style="italic" font-size="14.00">Description: Define Monte Carlo parameters</text>
<text text-anchor="start" x="415" y="-878.8" font-family="DejaVu Sans" font-size="14.00"> </text>
<text text-anchor="start" x="415" y="-861.8" font-family="DejaVu Sans" font-size="14.00">☐ Temperature range</text>
<text text-anchor="start" x="415" y="-844.8" font-family="DejaVu Sans" font-size="14.00">☐ Time&#45;step stability</text>
<text text-anchor="start" x="415" y="-827.8" font-family="DejaVu Sans" font-size="14.00">☐ Random seed control</text>
<text text-anchor="start" x="415" y="-810.8" font-family="DejaVu Sans" font-size="14.00">⚠ Use Latin Hypercube sampling.</text>
</g>
<!-- I/O Validation&#45;&gt;Parameter Setup -->
<g id="edge8" class="edge">
<title>I/O Validation&#45;&gt;Parameter Setup</title>
<path fill="none" stroke="black" d="M568,-1047.79C568,-1022.5 568,-988.36 568,-957.1"/>
<polygon fill="black" stroke="black" points="571.5,-957.07 568,-947.07 564.5,-957.07 571.5,-957.07"/>
</g>
<!-- Parameter Verification -->
<g id="node10" class="node">
<title>Parameter Verification</title>
<path fill="azure" stroke="black" stroke-width="2" d="M692,-765C692,-765 444,-765 444,-765 438,-765 432,-759 432,-753 432,-753 432,-699 432,-699 432,-693 438,-687 444,-687 444,-687 692,-687 692,-687 698,-687 704,-693 704,-699 704,-699 704,-753 704,-753 704,-759 698,-765 692,-765"/>
<text text-anchor="start" x="442" y="-747.8" font-family="DejaVu Sans" font-size="14.00">Task: Verify Params</text>
<text text-anchor="start" x="442" y="-730.8" font-family="DejaVu Sans" font-size="14.00">☐ Value bounds</text>
<text text-anchor="start" x="442" y="-713.8" font-family="DejaVu Sans" font-size="14.00">☐ Convergence checks</text>
<text text-anchor="start" x="442" y="-696.8" font-family="DejaVu Sans" font-size="14.00">⚠ Validate parameter combinations.</text>
</g>
<!-- Parameter Setup&#45;&gt;Parameter Verification -->
<g id="edge9" class="edge">
<title>Parameter Setup&#45;&gt;Parameter Verification</title>
<path fill="none" stroke="black" d="M568,-800.86C568,-792.17 568,-783.46 568,-775.23"/>
<polygon fill="black" stroke="black" points="571.5,-775.1 568,-765.1 564.5,-775.1 571.5,-775.1"/>
</g>
<!-- Batch Execution -->
<g id="node11" class="node">
<title>Batch Execution</title>
<path fill="azure" stroke="black" stroke-width="2" d="M703,-640C703,-640 433,-640 433,-640 427,-640 421,-634 421,-628 421,-628 421,-506 421,-506 421,-500 427,-494 433,-494 433,-494 703,-494 703,-494 709,-494 715,-500 715,-506 715,-506 715,-628 715,-628 715,-634 709,-640 703,-640"/>
<polygon fill="#f8ec99" stroke="transparent" points="431,-619 431,-634 705,-634 705,-619 431,-619"/>
<text text-anchor="start" x="513.5" y="-623.8" font-family="DejaVu Sans" font-weight="bold" font-size="14.00">Step: Execute</text>
<text text-anchor="start" x="431" y="-605.8" font-family="DejaVu Sans" font-size="14.00"> </text>
<text text-anchor="start" x="431" y="-589.8" font-family="DejaVu Sans" font-style="italic" font-size="14.00">Description: Submit jobs to HPC cluster</text>
<text text-anchor="start" x="431" y="-571.8" font-family="DejaVu Sans" font-size="14.00"> </text>
<text text-anchor="start" x="431" y="-554.8" font-family="DejaVu Sans" font-size="14.00">☑ SLURM scripts ready</text>
<text text-anchor="start" x="431" y="-537.8" font-family="DejaVu Sans" font-size="14.00">☑ Job arrays configured</text>
<text text-anchor="start" x="431" y="-520.8" font-family="DejaVu Sans" font-size="14.00">☐ Fault&#45;tolerance logic</text>
<text text-anchor="start" x="431" y="-503.8" font-family="DejaVu Sans" font-size="14.00">⚠ Checkpoint every 100 steps.</text>
</g>
<!-- Parameter Verification&#45;&gt;Batch Execution -->
<g id="edge10" class="edge">
<title>Parameter Verification&#45;&gt;Batch Execution</title>
<path fill="none" stroke="black" d="M568,-686.99C568,-675.82 568,-663.15 568,-650.33"/>
<polygon fill="black" stroke="black" points="571.5,-650.05 568,-640.05 564.5,-650.05 571.5,-650.05"/>
</g>
<!-- Job Monitoring -->
<g id="node12" class="node">
<title>Job Monitoring</title>
<path fill="azure" stroke="black" stroke-width="2" d="M660,-458C660,-458 476,-458 476,-458 470,-458 464,-452 464,-446 464,-446 464,-392 464,-392 464,-386 470,-380 476,-380 476,-380 660,-380 660,-380 666,-380 672,-386 672,-392 672,-392 672,-446 672,-446 672,-452 666,-458 660,-458"/>
<text text-anchor="start" x="474" y="-440.8" font-family="DejaVu Sans" font-size="14.00">Task: Monitor</text>
<text text-anchor="start" x="474" y="-423.8" font-family="DejaVu Sans" font-size="14.00">☐ Real&#45;time logs</text>
<text text-anchor="start" x="474" y="-406.8" font-family="DejaVu Sans" font-size="14.00">☑ Alert on failure</text>
<text text-anchor="start" x="474" y="-389.8" font-family="DejaVu Sans" font-size="14.00">⚠ Integrate with Slack API.</text>
</g>
<!-- Batch Execution&#45;&gt;Job Monitoring -->
<g id="edge11" class="edge">
<title>Batch Execution&#45;&gt;Job Monitoring</title>
<path fill="none" stroke="black" d="M568,-493.86C568,-485.17 568,-476.46 568,-468.23"/>
<polygon fill="black" stroke="black" points="571.5,-468.1 568,-458.1 564.5,-468.1 571.5,-468.1"/>
</g>
<!-- Data Aggregation -->
<g id="node13" class="node">
<title>Data Aggregation</title>
<path fill="azure" stroke="black" stroke-width="2" d="M678.5,-310C678.5,-310 457.5,-310 457.5,-310 451.5,-310 445.5,-304 445.5,-298 445.5,-298 445.5,-176 445.5,-176 445.5,-170 451.5,-164 457.5,-164 457.5,-164 678.5,-164 678.5,-164 684.5,-164 690.5,-170 690.5,-176 690.5,-176 690.5,-298 690.5,-298 690.5,-304 684.5,-310 678.5,-310"/>
<polygon fill="#f8ec99" stroke="transparent" points="456,-289 456,-304 681,-304 681,-289 456,-289"/>
<text text-anchor="start" x="504" y="-293.8" font-family="DejaVu Sans" font-weight="bold" font-size="14.00">Step: Aggregate</text>
<text text-anchor="start" x="456" y="-275.8" font-family="DejaVu Sans" font-size="14.00"> </text>
<text text-anchor="start" x="456" y="-259.8" font-family="DejaVu Sans" font-style="italic" font-size="14.00">Description: Merge output files</text>
<text text-anchor="start" x="456" y="-241.8" font-family="DejaVu Sans" font-size="14.00"> </text>
<text text-anchor="start" x="456" y="-224.8" font-family="DejaVu Sans" font-size="14.00">☑ HDF5 merge</text>
<text text-anchor="start" x="456" y="-207.8" font-family="DejaVu Sans" font-size="14.00">☐ CSV export</text>
<text text-anchor="start" x="456" y="-190.8" font-family="DejaVu Sans" font-size="14.00">☐ Metadata logging</text>
<text text-anchor="start" x="456" y="-173.8" font-family="DejaVu Sans" font-size="14.00">⚠ Automate directory discovery.</text>
</g>
<!-- Job Monitoring&#45;&gt;Data Aggregation -->
<g id="edge12" class="edge">
<title>Job Monitoring&#45;&gt;Data Aggregation</title>
<path fill="none" stroke="black" d="M568,-379.83C568,-362.44 568,-341.15 568,-320.4"/>
<polygon fill="black" stroke="black" points="571.5,-320.27 568,-310.27 564.5,-320.27 571.5,-320.27"/>
</g>
<!-- Result Visualization -->
<g id="node14" class="node">
<title>Result Visualization</title>
<path fill="azure" stroke="black" stroke-width="2" d="M662.5,-128C662.5,-128 473.5,-128 473.5,-128 467.5,-128 461.5,-122 461.5,-116 461.5,-116 461.5,-28 461.5,-28 461.5,-22 467.5,-16 473.5,-16 473.5,-16 662.5,-16 662.5,-16 668.5,-16 674.5,-22 674.5,-28 674.5,-28 674.5,-116 674.5,-116 674.5,-122 668.5,-128 662.5,-128"/>
<polygon fill="#f8ec99" stroke="transparent" points="472,-107 472,-122 665,-122 665,-107 472,-107"/>
<text text-anchor="start" x="510.5" y="-111.8" font-family="DejaVu Sans" font-weight="bold" font-size="14.00">Step: Visualize</text>
<text text-anchor="start" x="472" y="-93.8" font-family="DejaVu Sans" font-size="14.00"> </text>
<text text-anchor="start" x="472" y="-76.8" font-family="DejaVu Sans" font-size="14.00">☐ Time&#45;series plots</text>
<text text-anchor="start" x="472" y="-59.8" font-family="DejaVu Sans" font-size="14.00">☐ Heatmaps</text>
<text text-anchor="start" x="472" y="-42.8" font-family="DejaVu Sans" font-size="14.00">☑ Summary charts</text>
<text text-anchor="start" x="472" y="-25.8" font-family="DejaVu Sans" font-size="14.00">⚠ Use matplotlib and Plotly.</text>
</g>
<!-- Data Aggregation&#45;&gt;Result Visualization -->
<g id="edge13" class="edge">
<title>Data Aggregation&#45;&gt;Result Visualization</title>
<path fill="none" stroke="black" d="M568,-163.56C568,-155.09 568,-146.5 568,-138.14"/>
<polygon fill="black" stroke="black" points="571.5,-138.1 568,-128.1 564.5,-138.1 571.5,-138.1"/>
</g>
</g>
</svg>
