<?xml version="1.0" encoding="UTF-8" standalone="no"?>
<!DOCTYPE svg PUBLIC "-//W3C//DTD SVG 1.1//EN"
 "http://www.w3.org/Graphics/SVG/1.1/DTD/svg11.dtd">
<!-- Generated by graphviz version 2.50.0 (0)
 -->
<!-- Pages: 1 -->
<svg width="773pt" height="2122pt"
 viewBox="0.00 0.00 773.00 2122.00" xmlns="http://www.w3.org/2000/svg" xmlns:xlink="http://www.w3.org/1999/xlink">
<g id="graph0" class="graph" transform="scale(1 1) rotate(0) translate(4 2118)">
<polygon fill="white" stroke="transparent" points="-4,4 -4,-2118 769,-2118 769,4 -4,4"/>
<g id="clust1" class="cluster">
<title>cluster_Requirements_&amp;_Planning</title>
<path fill="#e6e6fa" stroke="grey" stroke-dasharray="5,2" d="M69,-1675C69,-1675 405,-1675 405,-1675 411,-1675 417,-1681 417,-1687 417,-1687 417,-2094 417,-2094 417,-2100 411,-2106 405,-2106 405,-2106 69,-2106 69,-2106 63,-2106 57,-2100 57,-2094 57,-2094 57,-1687 57,-1687 57,-1681 63,-1675 69,-1675"/>
<text text-anchor="middle" x="237" y="-2090.8" font-family="DejaVu Sans" font-size="14.00" fill="grey">Requirements &amp; Planning</text>
<text text-anchor="middle" x="237" y="-2075.8" font-family="DejaVu Sans" font-size="14.00" fill="grey">Define scope, user stories, and technical</text>
<text text-anchor="middle" x="237" y="-2060.8" font-family="DejaVu Sans" font-size="14.00" fill="grey">specifications</text>
</g>
<g id="clust2" class="cluster">
<title>cluster_Architecture_Design</title>
<path fill="#e6e6fa" stroke="grey" stroke-dasharray="5,2" d="M20,-1450C20,-1450 722,-1450 722,-1450 728,-1450 734,-1456 734,-1462 734,-1462 734,-1655 734,-1655 734,-1661 728,-1667 722,-1667 722,-1667 20,-1667 20,-1667 14,-1667 8,-1661 8,-1655 8,-1655 8,-1462 8,-1462 8,-1456 14,-1450 20,-1450"/>
<text text-anchor="middle" x="371" y="-1651.8" font-family="DejaVu Sans" font-size="14.00" fill="grey">Architecture Design</text>
<text text-anchor="middle" x="371" y="-1636.8" font-family="DejaVu Sans" font-size="14.00" fill="grey">High&#45;level modules and interactions</text>
</g>
<g id="clust3" class="cluster">
<title>cluster_Implementation</title>
<path fill="#e6e6fa" stroke="grey" stroke-dasharray="5,2" d="M375,-713C375,-713 745,-713 745,-713 751,-713 757,-719 757,-725 757,-725 757,-1430 757,-1430 757,-1436 751,-1442 745,-1442 745,-1442 375,-1442 375,-1442 369,-1442 363,-1436 363,-1430 363,-1430 363,-725 363,-725 363,-719 369,-713 375,-713"/>
<text text-anchor="middle" x="560" y="-1426.8" font-family="DejaVu Sans" font-size="14.00" fill="grey">Implementation</text>
<text text-anchor="middle" x="560" y="-1411.8" font-family="DejaVu Sans" font-size="14.00" fill="grey">Write, integrate, and test code modules</text>
</g>
<g id="clust4" class="cluster">
<title>cluster_Simulation_Pipeline</title>
<path fill="#e6e6fa" stroke="grey" stroke-dasharray="5,2" d="M401,-131C401,-131 727,-131 727,-131 733,-131 739,-137 739,-143 739,-143 739,-693 739,-693 739,-699 733,-705 727,-705 727,-705 401,-705 401,-705 395,-705 389,-699 389,-693 389,-693 389,-143 389,-143 389,-137 395,-131 401,-131"/>
<text text-anchor="middle" x="564" y="-689.8" font-family="DejaVu Sans" font-size="14.00" fill="grey">Simulation Pipeline</text>
<text text-anchor="middle" x="564" y="-674.8" font-family="DejaVu Sans" font-size="14.00" fill="grey">Configure and run batch simulations</text>
</g>
<g id="clust5" class="cluster">
<title>cluster_Model_Configuration</title>
<path fill="#ccccde" stroke="grey" stroke-dasharray="5,2" d="M409,-474C409,-474 719,-474 719,-474 725,-474 731,-480 731,-486 731,-486 731,-647 731,-647 731,-653 725,-659 719,-659 719,-659 409,-659 409,-659 403,-659 397,-653 397,-647 397,-647 397,-486 397,-486 397,-480 403,-474 409,-474"/>
<text text-anchor="middle" x="564" y="-643.8" font-family="DejaVu Sans" font-size="14.00" fill="grey">Model Configuration</text>
</g>
<g id="clust6" class="cluster">
<title>cluster_Execution_Engine</title>
<path fill="#ccccde" stroke="grey" stroke-dasharray="5,2" d="M431,-281C431,-281 697,-281 697,-281 703,-281 709,-287 709,-293 709,-293 709,-454 709,-454 709,-460 703,-466 697,-466 697,-466 431,-466 431,-466 425,-466 419,-460 419,-454 419,-454 419,-293 419,-293 419,-287 425,-281 431,-281"/>
<text text-anchor="middle" x="564" y="-450.8" font-family="DejaVu Sans" font-size="14.00" fill="grey">Execution Engine</text>
</g>
<g id="clust7" class="cluster">
<title>cluster_Results_Aggregation</title>
<path fill="#ccccde" stroke="grey" stroke-dasharray="5,2" d="M477,-139C477,-139 651,-139 651,-139 657,-139 663,-145 663,-151 663,-151 663,-261 663,-261 663,-267 657,-273 651,-273 651,-273 477,-273 477,-273 471,-273 465,-267 465,-261 465,-261 465,-151 465,-151 465,-145 471,-139 477,-139"/>
<text text-anchor="middle" x="564" y="-257.8" font-family="DejaVu Sans" font-size="14.00" fill="grey">Results Aggregation</text>
</g>
<g id="clust8" class="cluster">
<title>cluster_Testing_&amp;_Verification</title>
<path fill="#e6e6fa" stroke="grey" stroke-dasharray="5,2" d="M51,-315C51,-315 341,-315 341,-315 347,-315 353,-321 353,-327 353,-327 353,-875.5 353,-875.5 353,-881.5 347,-887.5 341,-887.5 341,-887.5 51,-887.5 51,-887.5 45,-887.5 39,-881.5 39,-875.5 39,-875.5 39,-327 39,-327 39,-321 45,-315 51,-315"/>
<text text-anchor="middle" x="196" y="-872.3" font-family="DejaVu Sans" font-size="14.00" fill="grey">Testing &amp; Verification</text>
<text text-anchor="middle" x="196" y="-857.3" font-family="DejaVu Sans" font-size="14.00" fill="grey">Unit tests, integration tests, and validation</text>
</g>
<g id="clust9" class="cluster">
<title>cluster_Deployment_&amp;_Documentation</title>
<path fill="#e6e6fa" stroke="grey" stroke-dasharray="5,2" d="M43,-8C43,-8 369,-8 369,-8 375,-8 381,-14 381,-20 381,-20 381,-246.5 381,-246.5 381,-252.5 375,-258.5 369,-258.5 369,-258.5 43,-258.5 43,-258.5 37,-258.5 31,-252.5 31,-246.5 31,-246.5 31,-20 31,-20 31,-14 37,-8 43,-8"/>
<text text-anchor="middle" x="206" y="-243.3" font-family="DejaVu Sans" font-size="14.00" fill="grey">Deployment &amp; Documentation</text>
<text text-anchor="middle" x="206" y="-228.3" font-family="DejaVu Sans" font-size="14.00" fill="grey">Package software and prepare docs</text>
</g>
<!-- Gather User Stories -->
<g id="node1" class="node">
<title>Gather User Stories</title>
<path fill="azure" stroke="black" stroke-width="2" d="M384,-2045C384,-2045 114,-2045 114,-2045 108,-2045 102,-2039 102,-2033 102,-2033 102,-1894 102,-1894 102,-1888 108,-1882 114,-1882 114,-1882 384,-1882 384,-1882 390,-1882 396,-1888 396,-1894 396,-1894 396,-2033 396,-2033 396,-2039 390,-2045 384,-2045"/>
<polygon fill="#f8ec99" stroke="transparent" points="112,-2023.5 112,-2038.5 386,-2038.5 386,-2023.5 112,-2023.5"/>
<text text-anchor="start" x="178" y="-2028.3" font-family="DejaVu Sans" font-weight="bold" font-size="14.00">Step: User Stories</text>
<text text-anchor="start" x="112" y="-2010.3" font-family="DejaVu Sans" font-size="14.00"> </text>
<text text-anchor="start" x="112" y="-1994.3" font-family="DejaVu Sans" font-style="italic" font-size="14.00">Description: Interview research team &amp;</text>
<text text-anchor="start" x="112" y="-1977.3" font-family="DejaVu Sans" font-style="italic" font-size="14.00">clinicians</text>
<text text-anchor="start" x="112" y="-1959.3" font-family="DejaVu Sans" font-size="14.00"> </text>
<text text-anchor="start" x="112" y="-1942.3" font-family="DejaVu Sans" font-size="14.00">☑ Initial interviews done</text>
<text text-anchor="start" x="112" y="-1925.3" font-family="DejaVu Sans" font-size="14.00">☐ Consolidate feedback</text>
<text text-anchor="start" x="112" y="-1908.3" font-family="DejaVu Sans" font-size="14.00">☐ Prioritize features</text>
<text text-anchor="start" x="112" y="-1891.3" font-family="DejaVu Sans" font-size="14.00">⚠ Use backlog spreadsheet.</text>
</g>
<!-- Draft Technical Spec -->
<g id="node2" class="node">
<title>Draft Technical Spec</title>
<path fill="azure" stroke="black" stroke-width="2" d="M397,-1846C397,-1846 77,-1846 77,-1846 71,-1846 65,-1840 65,-1834 65,-1834 65,-1695 65,-1695 65,-1689 71,-1683 77,-1683 77,-1683 397,-1683 397,-1683 403,-1683 409,-1689 409,-1695 409,-1695 409,-1834 409,-1834 409,-1840 403,-1846 397,-1846"/>
<polygon fill="#ff8080" stroke="transparent" points="75,-1824.5 75,-1839.5 399,-1839.5 399,-1824.5 75,-1824.5"/>
<text text-anchor="start" x="175" y="-1829.3" font-family="DejaVu Sans" font-weight="bold" font-size="14.00">Step: Tech Spec</text>
<text text-anchor="start" x="75" y="-1811.3" font-family="DejaVu Sans" font-size="14.00"> </text>
<text text-anchor="start" x="75" y="-1795.3" font-family="DejaVu Sans" font-style="italic" font-size="14.00">Description: Document APIs, data models, and</text>
<text text-anchor="start" x="75" y="-1778.3" font-family="DejaVu Sans" font-style="italic" font-size="14.00">simulation requirements</text>
<text text-anchor="start" x="75" y="-1760.3" font-family="DejaVu Sans" font-size="14.00"> </text>
<text text-anchor="start" x="75" y="-1743.3" font-family="DejaVu Sans" font-size="14.00">☐ Define data schema</text>
<text text-anchor="start" x="75" y="-1726.3" font-family="DejaVu Sans" font-size="14.00">☐ Specify performance targets</text>
<text text-anchor="start" x="75" y="-1709.3" font-family="DejaVu Sans" font-size="14.00">☐ Outline error&#45;handling</text>
<text text-anchor="start" x="75" y="-1692.3" font-family="DejaVu Sans" font-size="14.00">⚠ Align with ISO 14971</text>
</g>
<!-- Gather User Stories&#45;&gt;Draft Technical Spec -->
<g id="edge1" class="edge">
<title>Gather User Stories&#45;&gt;Draft Technical Spec</title>
<path fill="none" stroke="black" d="M244.08,-1881.8C243.57,-1873.33 243.04,-1864.67 242.52,-1856.09"/>
<polygon fill="black" stroke="black" points="246.01,-1855.84 241.91,-1846.07 239.02,-1856.26 246.01,-1855.84"/>
</g>
<!-- Select Technology Stack -->
<g id="node4" class="node">
<title>Select Technology Stack</title>
<path fill="azure" stroke="black" stroke-width="2" d="M713.5,-1557.5C713.5,-1557.5 406.5,-1557.5 406.5,-1557.5 400.5,-1557.5 394.5,-1551.5 394.5,-1545.5 394.5,-1545.5 394.5,-1533.5 394.5,-1533.5 394.5,-1527.5 400.5,-1521.5 406.5,-1521.5 406.5,-1521.5 713.5,-1521.5 713.5,-1521.5 719.5,-1521.5 725.5,-1527.5 725.5,-1533.5 725.5,-1533.5 725.5,-1545.5 725.5,-1545.5 725.5,-1551.5 719.5,-1557.5 713.5,-1557.5"/>
<text text-anchor="start" x="405" y="-1535.3" font-family="DejaVu Sans" font-size="14.00">Choose Python, C++ bindings, and Qt for UI</text>
</g>
<!-- Gather User Stories&#45;&gt;Select Technology Stack -->
<g id="edge3" class="edge">
<title>Gather User Stories&#45;&gt;Select Technology Stack</title>
<path fill="none" stroke="black" d="M381.4,-1881.93C394.66,-1870.82 407.19,-1858.8 418,-1846 492.42,-1757.86 536.45,-1624.21 552.75,-1567.48"/>
<polygon fill="black" stroke="black" points="556.13,-1568.38 555.47,-1557.81 549.39,-1566.49 556.13,-1568.38"/>
</g>
<!-- Define Module Layout -->
<g id="node3" class="node">
<title>Define Module Layout</title>
<path fill="azure" stroke="black" stroke-width="2" d="M364,-1621C364,-1621 28,-1621 28,-1621 22,-1621 16,-1615 16,-1609 16,-1609 16,-1470 16,-1470 16,-1464 22,-1458 28,-1458 28,-1458 364,-1458 364,-1458 370,-1458 376,-1464 376,-1470 376,-1470 376,-1609 376,-1609 376,-1615 370,-1621 364,-1621"/>
<text text-anchor="start" x="26" y="-1603.3" font-family="DejaVu Sans" font-size="14.00">Module: Layout</text>
<text text-anchor="start" x="26" y="-1587.3" font-family="DejaVu Sans" font-style="italic" font-size="14.00">Description: Decompose into Core, I/O, Utils, and</text>
<text text-anchor="start" x="26" y="-1570.3" font-family="DejaVu Sans" font-style="italic" font-size="14.00">UI modules</text>
<text text-anchor="start" x="26" y="-1552.3" font-family="DejaVu Sans" font-size="14.00"> </text>
<text text-anchor="start" x="26" y="-1535.3" font-family="DejaVu Sans" font-size="14.00">☑ Core engine defined</text>
<text text-anchor="start" x="26" y="-1518.3" font-family="DejaVu Sans" font-size="14.00">☑ I/O interfaces outlined</text>
<text text-anchor="start" x="26" y="-1501.3" font-family="DejaVu Sans" font-size="14.00">☐ Visualization module draft</text>
<text text-anchor="start" x="26" y="-1484.3" font-family="DejaVu Sans" font-size="14.00">☐ Utility services sketched</text>
<text text-anchor="start" x="26" y="-1467.3" font-family="DejaVu Sans" font-size="14.00">⚠ Consider plugin system for extensibility</text>
</g>
<!-- Draft Technical Spec&#45;&gt;Define Module Layout -->
<g id="edge2" class="edge">
<title>Draft Technical Spec&#45;&gt;Define Module Layout</title>
<path fill="none" stroke="black" d="M222.2,-1682.99C219.11,-1666.2 215.84,-1648.39 212.69,-1631.26"/>
<polygon fill="black" stroke="black" points="216.1,-1630.47 210.85,-1621.26 209.22,-1631.73 216.1,-1630.47"/>
</g>
<!-- Setup Dev Environment -->
<g id="node5" class="node">
<title>Setup Dev Environment</title>
<path fill="azure" stroke="black" stroke-width="2" d="M728,-1396C728,-1396 392,-1396 392,-1396 386,-1396 380,-1390 380,-1384 380,-1384 380,-1262 380,-1262 380,-1256 386,-1250 392,-1250 392,-1250 728,-1250 728,-1250 734,-1250 740,-1256 740,-1262 740,-1262 740,-1384 740,-1384 740,-1390 734,-1396 728,-1396"/>
<polygon fill="#f8ec99" stroke="transparent" points="390,-1375 390,-1390 730,-1390 730,-1375 390,-1375"/>
<text text-anchor="start" x="505.5" y="-1379.8" font-family="DejaVu Sans" font-weight="bold" font-size="14.00">Step: Dev Env</text>
<text text-anchor="start" x="390" y="-1361.8" font-family="DejaVu Sans" font-size="14.00"> </text>
<text text-anchor="start" x="390" y="-1345.8" font-family="DejaVu Sans" font-style="italic" font-size="14.00">Description: Configure virtualenv, CMake, and CI</text>
<text text-anchor="start" x="390" y="-1327.8" font-family="DejaVu Sans" font-size="14.00"> </text>
<text text-anchor="start" x="390" y="-1310.8" font-family="DejaVu Sans" font-size="14.00">☑ Python env ready</text>
<text text-anchor="start" x="390" y="-1293.8" font-family="DejaVu Sans" font-size="14.00">☑ CMake scripts configured</text>
<text text-anchor="start" x="390" y="-1276.8" font-family="DejaVu Sans" font-size="14.00">☐ CI pipeline skeleton</text>
<text text-anchor="start" x="390" y="-1259.8" font-family="DejaVu Sans" font-size="14.00">⚠ Use GitHub Actions</text>
</g>
<!-- Select Technology Stack&#45;&gt;Setup Dev Environment -->
<g id="edge4" class="edge">
<title>Select Technology Stack&#45;&gt;Setup Dev Environment</title>
<path fill="none" stroke="black" d="M560,-1521.31C560,-1496.37 560,-1448.49 560,-1406.15"/>
<polygon fill="black" stroke="black" points="563.5,-1406.09 560,-1396.09 556.5,-1406.09 563.5,-1406.09"/>
</g>
<!-- Implement Core Engine -->
<g id="node6" class="node">
<title>Implement Core Engine</title>
<path fill="azure" stroke="black" stroke-width="2" d="M736.5,-1214C736.5,-1214 383.5,-1214 383.5,-1214 377.5,-1214 371.5,-1208 371.5,-1202 371.5,-1202 371.5,-1046 371.5,-1046 371.5,-1040 377.5,-1034 383.5,-1034 383.5,-1034 736.5,-1034 736.5,-1034 742.5,-1034 748.5,-1040 748.5,-1046 748.5,-1046 748.5,-1202 748.5,-1202 748.5,-1208 742.5,-1214 736.5,-1214"/>
<polygon fill="#f8ec99" stroke="transparent" points="382,-1193 382,-1208 739,-1208 739,-1193 382,-1193"/>
<text text-anchor="start" x="490" y="-1197.8" font-family="DejaVu Sans" font-weight="bold" font-size="14.00">Step: Core Engine</text>
<text text-anchor="start" x="382" y="-1179.8" font-family="DejaVu Sans" font-size="14.00"> </text>
<text text-anchor="start" x="382" y="-1163.8" font-family="DejaVu Sans" font-style="italic" font-size="14.00">Description: Develop time&#45;stepping loop and solver</text>
<text text-anchor="start" x="382" y="-1146.8" font-family="DejaVu Sans" font-style="italic" font-size="14.00">interface</text>
<text text-anchor="start" x="382" y="-1128.8" font-family="DejaVu Sans" font-size="14.00"> </text>
<text text-anchor="start" x="382" y="-1111.8" font-family="DejaVu Sans" font-size="14.00">☐ Implement stepping scheduler</text>
<text text-anchor="start" x="382" y="-1094.8" font-family="DejaVu Sans" font-size="14.00">☐ Integrate numerical solver</text>
<text text-anchor="start" x="382" y="-1077.8" font-family="DejaVu Sans" font-size="14.00">☐ Add logging hooks</text>
<text text-anchor="start" x="382" y="-1060.8" font-family="DejaVu Sans" font-size="14.00">☑ Basic loop skeleton in place</text>
<text text-anchor="start" x="382" y="-1043.8" font-family="DejaVu Sans" font-size="14.00">⚠ Use abstract base classes for flexibility</text>
</g>
<!-- Setup Dev Environment&#45;&gt;Implement Core Engine -->
<g id="edge5" class="edge">
<title>Setup Dev Environment&#45;&gt;Implement Core Engine</title>
<path fill="none" stroke="black" d="M560,-1249.76C560,-1241.48 560,-1232.92 560,-1224.36"/>
<polygon fill="black" stroke="black" points="563.5,-1224.32 560,-1214.32 556.5,-1224.32 563.5,-1224.32"/>
</g>
<!-- Develop I/O Handlers -->
<g id="node7" class="node">
<title>Develop I/O Handlers</title>
<path fill="azure" stroke="black" stroke-width="2" d="M661.5,-998C661.5,-998 458.5,-998 458.5,-998 452.5,-998 446.5,-992 446.5,-986 446.5,-986 446.5,-915 446.5,-915 446.5,-909 452.5,-903 458.5,-903 458.5,-903 661.5,-903 661.5,-903 667.5,-903 673.5,-909 673.5,-915 673.5,-915 673.5,-986 673.5,-986 673.5,-992 667.5,-998 661.5,-998"/>
<text text-anchor="start" x="457" y="-980.3" font-family="DejaVu Sans" font-size="14.00">Implement: I/O</text>
<text text-anchor="start" x="457" y="-963.3" font-family="DejaVu Sans" font-size="14.00">☐ CSV reader</text>
<text text-anchor="start" x="457" y="-946.3" font-family="DejaVu Sans" font-size="14.00">☐ HDF5 checkpoint load/save</text>
<text text-anchor="start" x="457" y="-929.3" font-family="DejaVu Sans" font-size="14.00">☑ JSON config parser</text>
<text text-anchor="start" x="457" y="-912.3" font-family="DejaVu Sans" font-size="14.00">⚠ Ensure high throughput</text>
</g>
<!-- Implement Core Engine&#45;&gt;Develop I/O Handlers -->
<g id="edge6" class="edge">
<title>Implement Core Engine&#45;&gt;Develop I/O Handlers</title>
<path fill="none" stroke="black" d="M560,-1033.98C560,-1025.27 560,-1016.6 560,-1008.33"/>
<polygon fill="black" stroke="black" points="563.5,-1008.1 560,-998.1 556.5,-1008.1 563.5,-1008.1"/>
</g>
<!-- Build Visualization UI -->
<g id="node8" class="node">
<title>Build Visualization UI</title>
<path fill="azure" stroke="black" stroke-width="2" d="M729.5,-867C729.5,-867 392.5,-867 392.5,-867 386.5,-867 380.5,-861 380.5,-855 380.5,-855 380.5,-733 380.5,-733 380.5,-727 386.5,-721 392.5,-721 392.5,-721 729.5,-721 729.5,-721 735.5,-721 741.5,-727 741.5,-733 741.5,-733 741.5,-855 741.5,-855 741.5,-861 735.5,-867 729.5,-867"/>
<polygon fill="#f8ec99" stroke="transparent" points="391,-846 391,-861 732,-861 732,-846 391,-846"/>
<text text-anchor="start" x="488" y="-850.8" font-family="DejaVu Sans" font-weight="bold" font-size="14.00">Step: Visualization</text>
<text text-anchor="start" x="391" y="-832.8" font-family="DejaVu Sans" font-size="14.00"> </text>
<text text-anchor="start" x="391" y="-816.8" font-family="DejaVu Sans" font-style="italic" font-size="14.00">Description: Create plots and interactive controls</text>
<text text-anchor="start" x="391" y="-798.8" font-family="DejaVu Sans" font-size="14.00"> </text>
<text text-anchor="start" x="391" y="-781.8" font-family="DejaVu Sans" font-size="14.00">☑ Static matplotlib plots</text>
<text text-anchor="start" x="391" y="-764.8" font-family="DejaVu Sans" font-size="14.00">☐ Embed in Qt UI</text>
<text text-anchor="start" x="391" y="-747.8" font-family="DejaVu Sans" font-size="14.00">☐ Live&#45;update streams</text>
<text text-anchor="start" x="391" y="-730.8" font-family="DejaVu Sans" font-size="14.00">⚠ Later integrate Plotly Dash</text>
</g>
<!-- Develop I/O Handlers&#45;&gt;Build Visualization UI -->
<g id="edge7" class="edge">
<title>Develop I/O Handlers&#45;&gt;Build Visualization UI</title>
<path fill="none" stroke="black" d="M560.3,-902.73C560.35,-894.68 560.41,-886.11 560.47,-877.46"/>
<polygon fill="black" stroke="black" points="563.97,-877.31 560.53,-867.28 556.97,-877.26 563.97,-877.31"/>
</g>
<!-- Unit Tests -->
<g id="node12" class="node">
<title>Unit Tests</title>
<path fill="azure" stroke="black" stroke-width="2" d="M323.5,-841.5C323.5,-841.5 142.5,-841.5 142.5,-841.5 136.5,-841.5 130.5,-835.5 130.5,-829.5 130.5,-829.5 130.5,-758.5 130.5,-758.5 130.5,-752.5 136.5,-746.5 142.5,-746.5 142.5,-746.5 323.5,-746.5 323.5,-746.5 329.5,-746.5 335.5,-752.5 335.5,-758.5 335.5,-758.5 335.5,-829.5 335.5,-829.5 335.5,-835.5 329.5,-841.5 323.5,-841.5"/>
<text text-anchor="start" x="141" y="-823.8" font-family="DejaVu Sans" font-size="14.00">Tests: Core</text>
<text text-anchor="start" x="141" y="-806.8" font-family="DejaVu Sans" font-size="14.00">☑ Scheduler logic tests</text>
<text text-anchor="start" x="141" y="-789.8" font-family="DejaVu Sans" font-size="14.00">☐ Solver edge cases</text>
<text text-anchor="start" x="141" y="-772.8" font-family="DejaVu Sans" font-size="14.00">☐ I/O read/write tests</text>
<text text-anchor="start" x="141" y="-755.8" font-family="DejaVu Sans" font-size="14.00">⚠ Aim for &gt;90% coverage</text>
</g>
<!-- Develop I/O Handlers&#45;&gt;Unit Tests -->
<g id="edge11" class="edge">
<title>Develop I/O Handlers&#45;&gt;Unit Tests</title>
<path fill="none" stroke="black" d="M446.3,-921.66C417.09,-912.57 386.24,-901.21 359,-887.5 337.37,-876.61 315.5,-862.07 296.2,-847.75"/>
<polygon fill="black" stroke="black" points="298.18,-844.87 288.09,-841.64 293.97,-850.45 298.18,-844.87"/>
</g>
<!-- Parameter Setup -->
<g id="node9" class="node">
<title>Parameter Setup</title>
<path fill="azure" stroke="black" stroke-width="2" d="M711,-628C711,-628 417,-628 417,-628 411,-628 405,-622 405,-616 405,-616 405,-494 405,-494 405,-488 411,-482 417,-482 417,-482 711,-482 711,-482 717,-482 723,-488 723,-494 723,-494 723,-616 723,-616 723,-622 717,-628 711,-628"/>
<polygon fill="#ff8080" stroke="transparent" points="415,-607 415,-622 713,-622 713,-607 415,-607"/>
<text text-anchor="start" x="490.5" y="-611.8" font-family="DejaVu Sans" font-weight="bold" font-size="14.00">Step: Param Setup</text>
<text text-anchor="start" x="415" y="-593.8" font-family="DejaVu Sans" font-size="14.00"> </text>
<text text-anchor="start" x="415" y="-577.8" font-family="DejaVu Sans" font-style="italic" font-size="14.00">Description: Define ranges for Monte Carlo</text>
<text text-anchor="start" x="415" y="-559.8" font-family="DejaVu Sans" font-size="14.00"> </text>
<text text-anchor="start" x="415" y="-542.8" font-family="DejaVu Sans" font-size="14.00">☐ Thermal conductivity range</text>
<text text-anchor="start" x="415" y="-525.8" font-family="DejaVu Sans" font-size="14.00">☐ Time&#45;step stability tests</text>
<text text-anchor="start" x="415" y="-508.8" font-family="DejaVu Sans" font-size="14.00">☐ Input distribution sampling</text>
<text text-anchor="start" x="415" y="-491.8" font-family="DejaVu Sans" font-size="14.00">⚠ Use Latin Hypercube sampling</text>
</g>
<!-- Build Visualization UI&#45;&gt;Parameter Setup -->
<g id="edge8" class="edge">
<title>Build Visualization UI&#45;&gt;Parameter Setup</title>
<path fill="none" stroke="black" d="M561.91,-720.93C562.24,-694.84 562.62,-665.19 562.96,-638.3"/>
<polygon fill="black" stroke="black" points="566.46,-638.18 563.09,-628.14 559.46,-638.09 566.46,-638.18"/>
</g>
<!-- Run Batch Jobs -->
<g id="node10" class="node">
<title>Run Batch Jobs</title>
<path fill="azure" stroke="black" stroke-width="2" d="M689,-435C689,-435 439,-435 439,-435 433,-435 427,-429 427,-423 427,-423 427,-301 427,-301 427,-295 433,-289 439,-289 439,-289 689,-289 689,-289 695,-289 701,-295 701,-301 701,-301 701,-423 701,-423 701,-429 695,-435 689,-435"/>
<polygon fill="#f8ec99" stroke="transparent" points="437,-414 437,-429 691,-429 691,-414 437,-414"/>
<text text-anchor="start" x="501" y="-418.8" font-family="DejaVu Sans" font-weight="bold" font-size="14.00">Step: Batch Run</text>
<text text-anchor="start" x="437" y="-400.8" font-family="DejaVu Sans" font-size="14.00"> </text>
<text text-anchor="start" x="437" y="-384.8" font-family="DejaVu Sans" font-style="italic" font-size="14.00">Description: Launch on HPC cluster</text>
<text text-anchor="start" x="437" y="-366.8" font-family="DejaVu Sans" font-size="14.00"> </text>
<text text-anchor="start" x="437" y="-349.8" font-family="DejaVu Sans" font-size="14.00">☑ SLURM scripts written</text>
<text text-anchor="start" x="437" y="-332.8" font-family="DejaVu Sans" font-size="14.00">☐ Parallel job scheduling</text>
<text text-anchor="start" x="437" y="-315.8" font-family="DejaVu Sans" font-size="14.00">☐ Fault&#45;tolerance checks</text>
<text text-anchor="start" x="437" y="-298.8" font-family="DejaVu Sans" font-size="14.00">⚠ Use checkpointing every 10 steps</text>
</g>
<!-- Parameter Setup&#45;&gt;Run Batch Jobs -->
<g id="edge9" class="edge">
<title>Parameter Setup&#45;&gt;Run Batch Jobs</title>
<path fill="none" stroke="black" d="M564,-481.79C564,-469.91 564,-457.51 564,-445.4"/>
<polygon fill="black" stroke="black" points="567.5,-445.31 564,-435.31 560.5,-445.31 567.5,-445.31"/>
</g>
<!-- Collect Outputs -->
<g id="node11" class="node">
<title>Collect Outputs</title>
<path fill="azure" stroke="black" stroke-width="2" d="M642.5,-242C642.5,-242 485.5,-242 485.5,-242 479.5,-242 473.5,-236 473.5,-230 473.5,-230 473.5,-159 473.5,-159 473.5,-153 479.5,-147 485.5,-147 485.5,-147 642.5,-147 642.5,-147 648.5,-147 654.5,-153 654.5,-159 654.5,-159 654.5,-230 654.5,-230 654.5,-236 648.5,-242 642.5,-242"/>
<text text-anchor="start" x="484" y="-224.3" font-family="DejaVu Sans" font-size="14.00">Task: Aggregation</text>
<text text-anchor="start" x="484" y="-207.3" font-family="DejaVu Sans" font-size="14.00">☐ Gather logs</text>
<text text-anchor="start" x="484" y="-190.3" font-family="DejaVu Sans" font-size="14.00">☐ Merge HDF5 outputs</text>
<text text-anchor="start" x="484" y="-173.3" font-family="DejaVu Sans" font-size="14.00">☐ Verify data integrity</text>
<text text-anchor="start" x="484" y="-156.3" font-family="DejaVu Sans" font-size="14.00">⚠ Report missing files</text>
</g>
<!-- Run Batch Jobs&#45;&gt;Collect Outputs -->
<g id="edge10" class="edge">
<title>Run Batch Jobs&#45;&gt;Collect Outputs</title>
<path fill="none" stroke="black" d="M564,-288.89C564,-276.63 564,-264.05 564,-252.26"/>
<polygon fill="black" stroke="black" points="567.5,-252.12 564,-242.12 560.5,-252.12 567.5,-252.12"/>
</g>
<!-- Integration Tests -->
<g id="node13" class="node">
<title>Integration Tests</title>
<path fill="azure" stroke="black" stroke-width="2" d="M313,-602.5C313,-602.5 117,-602.5 117,-602.5 111,-602.5 105,-596.5 105,-590.5 105,-590.5 105,-519.5 105,-519.5 105,-513.5 111,-507.5 117,-507.5 117,-507.5 313,-507.5 313,-507.5 319,-507.5 325,-513.5 325,-519.5 325,-519.5 325,-590.5 325,-590.5 325,-596.5 319,-602.5 313,-602.5"/>
<text text-anchor="start" x="115" y="-584.8" font-family="DejaVu Sans" font-size="14.00">Tests: Full Flow</text>
<text text-anchor="start" x="115" y="-567.8" font-family="DejaVu Sans" font-size="14.00">☐ End&#45;to&#45;end simulation</text>
<text text-anchor="start" x="115" y="-550.8" font-family="DejaVu Sans" font-size="14.00">☐ Config file variations</text>
<text text-anchor="start" x="115" y="-533.8" font-family="DejaVu Sans" font-size="14.00">☐ Stress&#45;test with large data</text>
<text text-anchor="start" x="115" y="-516.8" font-family="DejaVu Sans" font-size="14.00">⚠ Log performance metrics</text>
</g>
<!-- Unit Tests&#45;&gt;Integration Tests -->
<g id="edge12" class="edge">
<title>Unit Tests&#45;&gt;Integration Tests</title>
<path fill="none" stroke="black" d="M229.47,-746.46C226.56,-708.18 222.43,-653.79 219.32,-612.92"/>
<polygon fill="black" stroke="black" points="222.8,-612.55 218.56,-602.84 215.82,-613.08 222.8,-612.55"/>
</g>
<!-- Validation against Reference -->
<g id="node14" class="node">
<title>Validation against Reference</title>
<path fill="azure" stroke="black" stroke-width="2" d="M331.5,-401C331.5,-401 80.5,-401 80.5,-401 74.5,-401 68.5,-395 68.5,-389 68.5,-389 68.5,-335 68.5,-335 68.5,-329 74.5,-323 80.5,-323 80.5,-323 331.5,-323 331.5,-323 337.5,-323 343.5,-329 343.5,-335 343.5,-335 343.5,-389 343.5,-389 343.5,-395 337.5,-401 331.5,-401"/>
<text text-anchor="start" x="79" y="-383.8" font-family="DejaVu Sans" font-size="14.00">Validation</text>
<text text-anchor="start" x="79" y="-366.8" font-family="DejaVu Sans" font-size="14.00">☐ Compare with analytic solution</text>
<text text-anchor="start" x="79" y="-349.8" font-family="DejaVu Sans" font-size="14.00">☐ Reproduce published benchmarks</text>
<text text-anchor="start" x="79" y="-332.8" font-family="DejaVu Sans" font-size="14.00">⚠ Document discrepancies</text>
</g>
<!-- Integration Tests&#45;&gt;Validation against Reference -->
<g id="edge13" class="edge">
<title>Integration Tests&#45;&gt;Validation against Reference</title>
<path fill="none" stroke="black" d="M212.8,-507.28C211.43,-478.13 209.66,-440.7 208.27,-411.27"/>
<polygon fill="black" stroke="black" points="211.77,-411.05 207.8,-401.22 204.78,-411.38 211.77,-411.05"/>
</g>
<!-- Package Distribution -->
<g id="node15" class="node">
<title>Package Distribution</title>
<path fill="azure" stroke="black" stroke-width="2" d="M360.5,-212.5C360.5,-212.5 51.5,-212.5 51.5,-212.5 45.5,-212.5 39.5,-206.5 39.5,-200.5 39.5,-200.5 39.5,-188.5 39.5,-188.5 39.5,-182.5 45.5,-176.5 51.5,-176.5 51.5,-176.5 360.5,-176.5 360.5,-176.5 366.5,-176.5 372.5,-182.5 372.5,-188.5 372.5,-188.5 372.5,-200.5 372.5,-200.5 372.5,-206.5 366.5,-212.5 360.5,-212.5"/>
<text text-anchor="start" x="50" y="-190.3" font-family="DejaVu Sans" font-size="14.00">Create wheel, container image, and docs site</text>
</g>
<!-- Validation against Reference&#45;&gt;Package Distribution -->
<g id="edge14" class="edge">
<title>Validation against Reference&#45;&gt;Package Distribution</title>
<path fill="none" stroke="black" d="M206,-322.61C206,-292.07 206,-250.06 206,-222.85"/>
<polygon fill="black" stroke="black" points="209.5,-222.51 206,-212.51 202.5,-222.51 209.5,-222.51"/>
</g>
<!-- Write User Manual -->
<g id="node16" class="node">
<title>Write User Manual</title>
<path fill="azure" stroke="black" stroke-width="2" d="M291.5,-111C291.5,-111 120.5,-111 120.5,-111 114.5,-111 108.5,-105 108.5,-99 108.5,-99 108.5,-28 108.5,-28 108.5,-22 114.5,-16 120.5,-16 120.5,-16 291.5,-16 291.5,-16 297.5,-16 303.5,-22 303.5,-28 303.5,-28 303.5,-99 303.5,-99 303.5,-105 297.5,-111 291.5,-111"/>
<text text-anchor="start" x="119" y="-93.3" font-family="DejaVu Sans" font-size="14.00">Manual:</text>
<text text-anchor="start" x="119" y="-76.3" font-family="DejaVu Sans" font-size="14.00">☐ Installation</text>
<text text-anchor="start" x="119" y="-59.3" font-family="DejaVu Sans" font-size="14.00">☐ Quick&#45;start guide</text>
<text text-anchor="start" x="119" y="-42.3" font-family="DejaVu Sans" font-size="14.00">☐ API reference</text>
<text text-anchor="start" x="119" y="-25.3" font-family="DejaVu Sans" font-size="14.00">⚠ Host on Read the Docs</text>
</g>
<!-- Package Distribution&#45;&gt;Write User Manual -->
<g id="edge15" class="edge">
<title>Package Distribution&#45;&gt;Write User Manual</title>
<path fill="none" stroke="black" d="M206,-176.37C206,-162.18 206,-141.18 206,-121.19"/>
<polygon fill="black" stroke="black" points="209.5,-121.18 206,-111.18 202.5,-121.18 209.5,-121.18"/>
</g>
</g>
</svg>
