<?xml version="1.0" encoding="UTF-8" standalone="no"?>
<!DOCTYPE svg PUBLIC "-//W3C//DTD SVG 1.1//EN"
 "http://www.w3.org/Graphics/SVG/1.1/DTD/svg11.dtd">
<!-- Generated by graphviz version 2.50.0 (0)
 -->
<!-- Pages: 1 -->
<svg width="1518pt" height="1199pt"
 viewBox="0.00 0.00 1518.00 1199.00" xmlns="http://www.w3.org/2000/svg" xmlns:xlink="http://www.w3.org/1999/xlink">
<g id="graph0" class="graph" transform="scale(1 1) rotate(0) translate(4 1195)">
<polygon fill="white" stroke="transparent" points="-4,4 -4,-1195 1514,-1195 1514,4 -4,4"/>
<g id="clust1" class="cluster">
<title>cluster_Config_&amp;_I/O</title>
<path fill="#e6e6fa" stroke="grey" stroke-dasharray="5,2" d="M83,-806C83,-806 385,-806 385,-806 391,-806 397,-812 397,-818 397,-818 397,-1171 397,-1171 397,-1177 391,-1183 385,-1183 385,-1183 83,-1183 83,-1183 77,-1183 71,-1177 71,-1171 71,-1171 71,-818 71,-818 71,-812 77,-806 83,-806"/>
<text text-anchor="middle" x="234" y="-1167.8" font-family="DejaVu Sans" font-size="14.00" fill="grey">Config &amp; I/O</text>
<text text-anchor="middle" x="234" y="-1152.8" font-family="DejaVu Sans" font-size="14.00" fill="grey">Load parameters, handle file read/write</text>
</g>
<g id="clust2" class="cluster">
<title>cluster_YAML_Parser</title>
<path fill="#ccccde" stroke="grey" stroke-dasharray="5,2" d="M91,-969C91,-969 377,-969 377,-969 383,-969 389,-975 389,-981 389,-981 389,-1125 389,-1125 389,-1131 383,-1137 377,-1137 377,-1137 91,-1137 91,-1137 85,-1137 79,-1131 79,-1125 79,-1125 79,-981 79,-981 79,-975 85,-969 91,-969"/>
<text text-anchor="middle" x="234" y="-1121.8" font-family="DejaVu Sans" font-size="14.00" fill="grey">YAML Parser</text>
</g>
<g id="clust3" class="cluster">
<title>cluster_Checkpoint_I/O</title>
<path fill="#ccccde" stroke="grey" stroke-dasharray="5,2" d="M106,-814C106,-814 330,-814 330,-814 336,-814 342,-820 342,-826 342,-826 342,-949 342,-949 342,-955 336,-961 330,-961 330,-961 106,-961 106,-961 100,-961 94,-955 94,-949 94,-949 94,-826 94,-826 94,-820 100,-814 106,-814"/>
<text text-anchor="middle" x="218" y="-945.8" font-family="DejaVu Sans" font-size="14.00" fill="grey">Checkpoint I/O</text>
</g>
<g id="clust4" class="cluster">
<title>cluster_Core_Simulation_Engine</title>
<path fill="#e6e6fa" stroke="grey" stroke-dasharray="5,2" d="M20,-333C20,-333 864,-333 864,-333 870,-333 876,-339 876,-345 876,-345 876,-786 876,-786 876,-792 870,-798 864,-798 864,-798 20,-798 20,-798 14,-798 8,-792 8,-786 8,-786 8,-345 8,-345 8,-339 14,-333 20,-333"/>
<text text-anchor="middle" x="442" y="-782.8" font-family="DejaVu Sans" font-size="14.00" fill="grey">Core Simulation Engine</text>
<text text-anchor="middle" x="442" y="-767.8" font-family="DejaVu Sans" font-size="14.00" fill="grey">Time‐stepping and physics solver</text>
</g>
<g id="clust5" class="cluster">
<title>cluster_Mesh_Generation</title>
<path fill="#ccccde" stroke="grey" stroke-dasharray="5,2" d="M28,-656C28,-656 332,-656 332,-656 338,-656 344,-662 344,-668 344,-668 344,-719 344,-719 344,-725 338,-731 332,-731 332,-731 28,-731 28,-731 22,-731 16,-725 16,-719 16,-719 16,-668 16,-668 16,-662 22,-656 28,-656"/>
<text text-anchor="middle" x="180" y="-715.8" font-family="DejaVu Sans" font-size="14.00" fill="grey">Mesh Generation</text>
</g>
<g id="clust6" class="cluster">
<title>cluster_Time_Integrator</title>
<path fill="#ccccde" stroke="grey" stroke-dasharray="5,2" d="M364,-439C364,-439 588,-439 588,-439 594,-439 600,-445 600,-451 600,-451 600,-740 600,-740 600,-746 594,-752 588,-752 588,-752 364,-752 364,-752 358,-752 352,-746 352,-740 352,-740 352,-451 352,-451 352,-445 358,-439 364,-439"/>
<text text-anchor="middle" x="476" y="-736.8" font-family="DejaVu Sans" font-size="14.00" fill="grey">Time Integrator</text>
</g>
<g id="clust7" class="cluster">
<title>cluster_Physics_Solver</title>
<path fill="#ccccde" stroke="grey" stroke-dasharray="5,2" d="M620,-341C620,-341 856,-341 856,-341 862,-341 868,-347 868,-353 868,-353 868,-623 868,-623 868,-629 862,-635 856,-635 856,-635 620,-635 620,-635 614,-635 608,-629 608,-623 608,-623 608,-353 608,-353 608,-347 614,-341 620,-341"/>
<text text-anchor="middle" x="738" y="-619.8" font-family="DejaVu Sans" font-size="14.00" fill="grey">Physics Solver</text>
</g>
<g id="clust8" class="cluster">
<title>cluster_Post&#45;Processing</title>
<path fill="#e6e6fa" stroke="grey" stroke-dasharray="5,2" d="M896,-200C896,-200 1178,-200 1178,-200 1184,-200 1190,-206 1190,-212 1190,-212 1190,-548 1190,-548 1190,-554 1184,-560 1178,-560 1178,-560 896,-560 896,-560 890,-560 884,-554 884,-548 884,-548 884,-212 884,-212 884,-206 890,-200 896,-200"/>
<text text-anchor="middle" x="1037" y="-544.8" font-family="DejaVu Sans" font-size="14.00" fill="grey">Post&#45;Processing</text>
<text text-anchor="middle" x="1037" y="-529.8" font-family="DejaVu Sans" font-size="14.00" fill="grey">Analyze and visualize results</text>
</g>
<g id="clust9" class="cluster">
<title>cluster_Metrics_Computation</title>
<path fill="#ccccde" stroke="grey" stroke-dasharray="5,2" d="M904,-341C904,-341 1170,-341 1170,-341 1176,-341 1182,-347 1182,-353 1182,-353 1182,-502 1182,-502 1182,-508 1176,-514 1170,-514 1170,-514 904,-514 904,-514 898,-514 892,-508 892,-502 892,-502 892,-353 892,-353 892,-347 898,-341 904,-341"/>
<text text-anchor="middle" x="1037" y="-498.8" font-family="DejaVu Sans" font-size="14.00" fill="grey">Metrics Computation</text>
</g>
<g id="clust10" class="cluster">
<title>cluster_Visualization</title>
<path fill="#ccccde" stroke="grey" stroke-dasharray="5,2" d="M906,-208C906,-208 1168,-208 1168,-208 1174,-208 1180,-214 1180,-220 1180,-220 1180,-313 1180,-313 1180,-319 1174,-325 1168,-325 1168,-325 906,-325 906,-325 900,-325 894,-319 894,-313 894,-313 894,-220 894,-220 894,-214 900,-208 906,-208"/>
<text text-anchor="middle" x="1037" y="-309.8" font-family="DejaVu Sans" font-size="14.00" fill="grey">Visualization</text>
</g>
<g id="clust11" class="cluster">
<title>cluster_Utilities</title>
<path fill="#e6e6fa" stroke="grey" stroke-dasharray="5,2" d="M1210,-136C1210,-136 1490,-136 1490,-136 1496,-136 1502,-142 1502,-148 1502,-148 1502,-419 1502,-419 1502,-425 1496,-431 1490,-431 1490,-431 1210,-431 1210,-431 1204,-431 1198,-425 1198,-419 1198,-419 1198,-148 1198,-148 1198,-142 1204,-136 1210,-136"/>
<text text-anchor="middle" x="1350" y="-415.8" font-family="DejaVu Sans" font-size="14.00" fill="grey">Utilities</text>
<text text-anchor="middle" x="1350" y="-400.8" font-family="DejaVu Sans" font-size="14.00" fill="grey">Helpers, logging, error handling</text>
</g>
<!-- Parse Config File -->
<g id="node1" class="node">
<title>Parse Config File</title>
<path fill="azure" stroke="black" stroke-width="2" d="M369,-1106C369,-1106 99,-1106 99,-1106 93,-1106 87,-1100 87,-1094 87,-1094 87,-989 87,-989 87,-983 93,-977 99,-977 99,-977 369,-977 369,-977 375,-977 381,-983 381,-989 381,-989 381,-1094 381,-1094 381,-1100 375,-1106 369,-1106"/>
<polygon fill="#a1ddb2" stroke="transparent" points="97,-1084.5 97,-1099.5 371,-1099.5 371,-1084.5 97,-1084.5"/>
<text text-anchor="start" x="165" y="-1089.3" font-family="DejaVu Sans" font-weight="bold" font-size="14.00">Step: Parse YAML</text>
<text text-anchor="start" x="97" y="-1071.3" font-family="DejaVu Sans" font-size="14.00"> </text>
<text text-anchor="start" x="97" y="-1055.3" font-family="DejaVu Sans" font-style="italic" font-size="14.00">Description: Read settings.yml into dict</text>
<text text-anchor="start" x="97" y="-1037.3" font-family="DejaVu Sans" font-size="14.00"> </text>
<text text-anchor="start" x="97" y="-1020.3" font-family="DejaVu Sans" font-size="14.00">☑ Implemented with PyYAML</text>
<text text-anchor="start" x="97" y="-1003.3" font-family="DejaVu Sans" font-size="14.00">☐ Validate parameter ranges</text>
<text text-anchor="start" x="97" y="-986.3" font-family="DejaVu Sans" font-size="14.00">⚠ Use jsonschema for validation later</text>
</g>
<!-- Save Checkpoint -->
<g id="node2" class="node">
<title>Save Checkpoint</title>
<path fill="azure" stroke="black" stroke-width="2" d="M312,-930C312,-930 140,-930 140,-930 134,-930 128,-924 128,-918 128,-918 128,-906 128,-906 128,-900 134,-894 140,-894 140,-894 312,-894 312,-894 318,-894 324,-900 324,-906 324,-906 324,-918 324,-918 324,-924 318,-930 312,-930"/>
<text text-anchor="start" x="138" y="-907.8" font-family="DejaVu Sans" font-size="14.00">☐ Serialize state to HDF5</text>
</g>
<!-- Parse Config File&#45;&gt;Save Checkpoint -->
<g id="edge1" class="edge">
<title>Parse Config File&#45;&gt;Save Checkpoint</title>
<path fill="none" stroke="black" d="M230,-976.75C229.19,-963.86 228.38,-950.98 227.71,-940.2"/>
<polygon fill="black" stroke="black" points="231.2,-939.96 227.08,-930.2 224.21,-940.39 231.2,-939.96"/>
</g>
<!-- Initialize Time Loop -->
<g id="node5" class="node">
<title>Initialize Time Loop</title>
<path fill="azure" stroke="black" stroke-width="2" d="M580,-721C580,-721 372,-721 372,-721 366,-721 360,-715 360,-709 360,-709 360,-655 360,-655 360,-649 366,-643 372,-643 372,-643 580,-643 580,-643 586,-643 592,-649 592,-655 592,-655 592,-709 592,-709 592,-715 586,-721 580,-721"/>
<polygon fill="#a1ddb2" stroke="transparent" points="370,-700 370,-715 582,-715 582,-700 370,-700"/>
<text text-anchor="start" x="418.5" y="-704.8" font-family="DejaVu Sans" font-weight="bold" font-size="14.00">Step: Init Loop</text>
<text text-anchor="start" x="370" y="-686.8" font-family="DejaVu Sans" font-size="14.00"> </text>
<text text-anchor="start" x="370" y="-670.8" font-family="DejaVu Sans" font-style="italic" font-size="14.00">Description: Set t=0, dt, t_end</text>
<text text-anchor="start" x="370" y="-652.8" font-family="DejaVu Sans" font-size="14.00"> </text>
</g>
<!-- Parse Config File&#45;&gt;Initialize Time Loop -->
<g id="edge4" class="edge">
<title>Parse Config File&#45;&gt;Initialize Time Loop</title>
<path fill="none" stroke="black" d="M331.03,-976.86C336.37,-971.79 341.42,-966.49 346,-961 404.57,-890.82 443.03,-789.83 462.02,-730.86"/>
<polygon fill="black" stroke="black" points="465.44,-731.65 465.12,-721.06 458.77,-729.54 465.44,-731.65"/>
</g>
<!-- Load Checkpoint -->
<g id="node3" class="node">
<title>Load Checkpoint</title>
<path fill="azure" stroke="black" stroke-width="2" d="M322,-858C322,-858 114,-858 114,-858 108,-858 102,-852 102,-846 102,-846 102,-834 102,-834 102,-828 108,-822 114,-822 114,-822 322,-822 322,-822 328,-822 334,-828 334,-834 334,-834 334,-846 334,-846 334,-852 328,-858 322,-858"/>
<text text-anchor="start" x="112" y="-835.8" font-family="DejaVu Sans" font-size="14.00">☑ Round&#45;trip unit test passing</text>
</g>
<!-- Save Checkpoint&#45;&gt;Load Checkpoint -->
<g id="edge2" class="edge">
<title>Save Checkpoint&#45;&gt;Load Checkpoint</title>
<path fill="none" stroke="black" d="M224.02,-893.7C223.14,-885.98 222.08,-876.71 221.1,-868.11"/>
<polygon fill="black" stroke="black" points="224.57,-867.64 219.95,-858.1 217.61,-868.44 224.57,-867.64"/>
</g>
<!-- Generate Mesh -->
<g id="node4" class="node">
<title>Generate Mesh</title>
<path fill="azure" stroke="black" stroke-width="2" d="M324,-700C324,-700 36,-700 36,-700 30,-700 24,-694 24,-688 24,-688 24,-676 24,-676 24,-670 30,-664 36,-664 36,-664 324,-664 324,-664 330,-664 336,-670 336,-676 336,-676 336,-688 336,-688 336,-694 330,-700 324,-700"/>
<text text-anchor="start" x="34" y="-677.8" font-family="DejaVu Sans" font-size="14.00">☐ Support unstructured tetrahedral mesh</text>
</g>
<!-- Load Checkpoint&#45;&gt;Generate Mesh -->
<g id="edge3" class="edge">
<title>Load Checkpoint&#45;&gt;Generate Mesh</title>
<path fill="none" stroke="black" d="M213.79,-821.71C207.23,-794.77 194.5,-742.54 186.68,-710.42"/>
<polygon fill="black" stroke="black" points="190,-709.26 184.23,-700.37 183.2,-710.91 190,-709.26"/>
</g>
<!-- Advance Step -->
<g id="node6" class="node">
<title>Advance Step</title>
<path fill="azure" stroke="black" stroke-width="2" d="M576,-604C576,-604 376,-604 376,-604 370,-604 364,-598 364,-592 364,-592 364,-580 364,-580 364,-574 370,-568 376,-568 376,-568 576,-568 576,-568 582,-568 588,-574 588,-580 588,-580 588,-592 588,-592 588,-598 582,-604 576,-604"/>
<text text-anchor="start" x="374" y="-581.8" font-family="DejaVu Sans" font-size="14.00">☑ Euler explicit implemented</text>
</g>
<!-- Initialize Time Loop&#45;&gt;Advance Step -->
<g id="edge5" class="edge">
<title>Initialize Time Loop&#45;&gt;Advance Step</title>
<path fill="none" stroke="black" d="M476,-642.77C476,-633.23 476,-623.19 476,-614.3"/>
<polygon fill="black" stroke="black" points="479.5,-614.13 476,-604.13 472.5,-614.13 479.5,-614.13"/>
</g>
<!-- Assemble Stiffness -->
<g id="node8" class="node">
<title>Assemble Stiffness</title>
<path fill="azure" stroke="black" stroke-width="2" d="M847.5,-604C847.5,-604 628.5,-604 628.5,-604 622.5,-604 616.5,-598 616.5,-592 616.5,-592 616.5,-580 616.5,-580 616.5,-574 622.5,-568 628.5,-568 628.5,-568 847.5,-568 847.5,-568 853.5,-568 859.5,-574 859.5,-580 859.5,-580 859.5,-592 859.5,-592 859.5,-598 853.5,-604 847.5,-604"/>
<text text-anchor="start" x="627" y="-581.8" font-family="DejaVu Sans" font-size="14.00">Compute global stiffness matrix</text>
</g>
<!-- Initialize Time Loop&#45;&gt;Assemble Stiffness -->
<g id="edge7" class="edge">
<title>Initialize Time Loop&#45;&gt;Assemble Stiffness</title>
<path fill="none" stroke="black" d="M582.19,-642.9C615.96,-630.79 652.01,-617.85 680.93,-607.48"/>
<polygon fill="black" stroke="black" points="682.21,-610.73 690.45,-604.06 679.85,-604.14 682.21,-610.73"/>
</g>
<!-- Adaptive dt -->
<g id="node7" class="node">
<title>Adaptive dt</title>
<path fill="azure" stroke="black" stroke-width="2" d="M561.5,-483C561.5,-483 390.5,-483 390.5,-483 384.5,-483 378.5,-477 378.5,-471 378.5,-471 378.5,-459 378.5,-459 378.5,-453 384.5,-447 390.5,-447 390.5,-447 561.5,-447 561.5,-447 567.5,-447 573.5,-453 573.5,-459 573.5,-459 573.5,-471 573.5,-471 573.5,-477 567.5,-483 561.5,-483"/>
<text text-anchor="start" x="389" y="-460.8" font-family="DejaVu Sans" font-size="14.00">☐ Add RK4 &amp; CFL control</text>
</g>
<!-- Advance Step&#45;&gt;Adaptive dt -->
<g id="edge6" class="edge">
<title>Advance Step&#45;&gt;Adaptive dt</title>
<path fill="none" stroke="black" d="M476,-567.95C476,-548.42 476,-516.16 476,-493.16"/>
<polygon fill="black" stroke="black" points="479.5,-493.02 476,-483.02 472.5,-493.02 479.5,-493.02"/>
</g>
<!-- Apply BCs -->
<g id="node9" class="node">
<title>Apply BCs</title>
<path fill="azure" stroke="black" stroke-width="2" d="M825,-487C825,-487 651,-487 651,-487 645,-487 639,-481 639,-475 639,-475 639,-455 639,-455 639,-449 645,-443 651,-443 651,-443 825,-443 825,-443 831,-443 837,-449 837,-455 837,-455 837,-475 837,-475 837,-481 831,-487 825,-487"/>
<text text-anchor="start" x="649" y="-469.8" font-family="DejaVu Sans" font-size="14.00">☑ Dirichlet BCs working</text>
<text text-anchor="start" x="649" y="-452.8" font-family="DejaVu Sans" font-size="14.00">⚠ Neumann BCs pending</text>
</g>
<!-- Assemble Stiffness&#45;&gt;Apply BCs -->
<g id="edge8" class="edge">
<title>Assemble Stiffness&#45;&gt;Apply BCs</title>
<path fill="none" stroke="black" d="M738,-567.95C738,-549.53 738,-519.79 738,-497.17"/>
<polygon fill="black" stroke="black" points="741.5,-497.03 738,-487.03 734.5,-497.03 741.5,-497.03"/>
</g>
<!-- Compute Energy Norm -->
<g id="node11" class="node">
<title>Compute Energy Norm</title>
<path fill="azure" stroke="black" stroke-width="2" d="M1151.5,-483C1151.5,-483 922.5,-483 922.5,-483 916.5,-483 910.5,-477 910.5,-471 910.5,-471 910.5,-459 910.5,-459 910.5,-453 916.5,-447 922.5,-447 922.5,-447 1151.5,-447 1151.5,-447 1157.5,-447 1163.5,-453 1163.5,-459 1163.5,-459 1163.5,-471 1163.5,-471 1163.5,-477 1157.5,-483 1151.5,-483"/>
<text text-anchor="start" x="921" y="-460.8" font-family="DejaVu Sans" font-size="14.00">☑ L2 and H1 norms implemented</text>
</g>
<!-- Assemble Stiffness&#45;&gt;Compute Energy Norm -->
<g id="edge10" class="edge">
<title>Assemble Stiffness&#45;&gt;Compute Energy Norm</title>
<path fill="none" stroke="black" d="M846.72,-567.93C855.37,-565.6 863.89,-562.97 872,-560 920.95,-542.07 972.39,-510.42 1004.56,-488.85"/>
<polygon fill="black" stroke="black" points="1006.79,-491.56 1013.1,-483.05 1002.86,-485.77 1006.79,-491.56"/>
</g>
<!-- Solve Linear System -->
<g id="node10" class="node">
<title>Solve Linear System</title>
<path fill="azure" stroke="black" stroke-width="2" d="M823.5,-385C823.5,-385 652.5,-385 652.5,-385 646.5,-385 640.5,-379 640.5,-373 640.5,-373 640.5,-361 640.5,-361 640.5,-355 646.5,-349 652.5,-349 652.5,-349 823.5,-349 823.5,-349 829.5,-349 835.5,-355 835.5,-361 835.5,-361 835.5,-373 835.5,-373 835.5,-379 829.5,-385 823.5,-385"/>
<text text-anchor="start" x="651" y="-362.8" font-family="DejaVu Sans" font-size="14.00">☐ Integrate PETSc solver</text>
</g>
<!-- Apply BCs&#45;&gt;Solve Linear System -->
<g id="edge9" class="edge">
<title>Apply BCs&#45;&gt;Solve Linear System</title>
<path fill="none" stroke="black" d="M738,-442.69C738,-428.74 738,-410.36 738,-395.33"/>
<polygon fill="black" stroke="black" points="741.5,-395.09 738,-385.09 734.5,-395.09 741.5,-395.09"/>
</g>
<!-- Fidelity Analysis -->
<g id="node12" class="node">
<title>Fidelity Analysis</title>
<path fill="azure" stroke="black" stroke-width="2" d="M1161.5,-385C1161.5,-385 912.5,-385 912.5,-385 906.5,-385 900.5,-379 900.5,-373 900.5,-373 900.5,-361 900.5,-361 900.5,-355 906.5,-349 912.5,-349 912.5,-349 1161.5,-349 1161.5,-349 1167.5,-349 1173.5,-355 1173.5,-361 1173.5,-361 1173.5,-373 1173.5,-373 1173.5,-379 1167.5,-385 1161.5,-385"/>
<text text-anchor="start" x="911" y="-362.8" font-family="DejaVu Sans" font-size="14.00">☐ Compare against analytic solution</text>
</g>
<!-- Compute Energy Norm&#45;&gt;Fidelity Analysis -->
<g id="edge11" class="edge">
<title>Compute Energy Norm&#45;&gt;Fidelity Analysis</title>
<path fill="none" stroke="black" d="M1037,-446.84C1037,-432.5 1037,-411.81 1037,-395.22"/>
<polygon fill="black" stroke="black" points="1040.5,-395.01 1037,-385.01 1033.5,-395.01 1040.5,-395.01"/>
</g>
<!-- Logging Setup -->
<g id="node14" class="node">
<title>Logging Setup</title>
<path fill="azure" stroke="black" stroke-width="2" d="M1454.5,-385C1454.5,-385 1227.5,-385 1227.5,-385 1221.5,-385 1215.5,-379 1215.5,-373 1215.5,-373 1215.5,-361 1215.5,-361 1215.5,-355 1221.5,-349 1227.5,-349 1227.5,-349 1454.5,-349 1454.5,-349 1460.5,-349 1466.5,-355 1466.5,-361 1466.5,-361 1466.5,-373 1466.5,-373 1466.5,-379 1460.5,-385 1454.5,-385"/>
<text text-anchor="start" x="1226" y="-362.8" font-family="DejaVu Sans" font-size="14.00">Initialize logging to file &amp; console</text>
</g>
<!-- Compute Energy Norm&#45;&gt;Logging Setup -->
<g id="edge13" class="edge">
<title>Compute Energy Norm&#45;&gt;Logging Setup</title>
<path fill="none" stroke="black" d="M1125.49,-446.97C1145.56,-442.4 1166.65,-437.03 1186,-431 1223.29,-419.38 1264.16,-402.59 1294.57,-389.27"/>
<polygon fill="black" stroke="black" points="1296.33,-392.32 1304.06,-385.07 1293.5,-385.91 1296.33,-392.32"/>
</g>
<!-- Plot Results -->
<g id="node13" class="node">
<title>Plot Results</title>
<path fill="azure" stroke="black" stroke-width="2" d="M1160,-294C1160,-294 914,-294 914,-294 908,-294 902,-288 902,-282 902,-282 902,-228 902,-228 902,-222 908,-216 914,-216 914,-216 1160,-216 1160,-216 1166,-216 1172,-222 1172,-228 1172,-228 1172,-282 1172,-282 1172,-288 1166,-294 1160,-294"/>
<polygon fill="#f8ec99" stroke="transparent" points="912,-273 912,-288 1162,-288 1162,-273 912,-273"/>
<text text-anchor="start" x="998" y="-277.8" font-family="DejaVu Sans" font-weight="bold" font-size="14.00">Step: Plot</text>
<text text-anchor="start" x="912" y="-259.8" font-family="DejaVu Sans" font-size="14.00"> </text>
<text text-anchor="start" x="912" y="-243.8" font-family="DejaVu Sans" font-style="italic" font-size="14.00">Description: 2D slices &amp; isosurfaces</text>
<text text-anchor="start" x="912" y="-225.8" font-family="DejaVu Sans" font-size="14.00"> </text>
</g>
<!-- Fidelity Analysis&#45;&gt;Plot Results -->
<g id="edge12" class="edge">
<title>Fidelity Analysis&#45;&gt;Plot Results</title>
<path fill="none" stroke="black" d="M1037,-348.81C1037,-336.82 1037,-320.17 1037,-304.28"/>
<polygon fill="black" stroke="black" points="1040.5,-304.01 1037,-294.01 1033.5,-304.01 1040.5,-304.01"/>
</g>
<!-- Run Full Simulation -->
<g id="node17" class="node">
<title>Run Full Simulation</title>
<path fill="azure" stroke="black" stroke-width="2" d="M1133,-180C1133,-180 941,-180 941,-180 935,-180 929,-174 929,-168 929,-168 929,-156 929,-156 929,-150 935,-144 941,-144 941,-144 1133,-144 1133,-144 1139,-144 1145,-150 1145,-156 1145,-156 1145,-168 1145,-168 1145,-174 1139,-180 1133,-180"/>
<text text-anchor="start" x="939" y="-157.8" font-family="DejaVu Sans" font-size="14.00">☐ Command&#45;line entrypoint</text>
</g>
<!-- Plot Results&#45;&gt;Run Full Simulation -->
<g id="edge16" class="edge">
<title>Plot Results&#45;&gt;Run Full Simulation</title>
<path fill="none" stroke="black" d="M1037,-215.94C1037,-207.27 1037,-198.23 1037,-190.12"/>
<polygon fill="black" stroke="black" points="1040.5,-190.12 1037,-180.12 1033.5,-190.12 1040.5,-190.12"/>
</g>
<!-- Error Handler -->
<g id="node15" class="node">
<title>Error Handler</title>
<path fill="azure" stroke="black" stroke-width="2" d="M1482,-273C1482,-273 1218,-273 1218,-273 1212,-273 1206,-267 1206,-261 1206,-261 1206,-249 1206,-249 1206,-243 1212,-237 1218,-237 1218,-237 1482,-237 1482,-237 1488,-237 1494,-243 1494,-249 1494,-249 1494,-261 1494,-261 1494,-267 1488,-273 1482,-273"/>
<text text-anchor="start" x="1216" y="-250.8" font-family="DejaVu Sans" font-size="14.00">☐ Custom exceptions for each module</text>
</g>
<!-- Logging Setup&#45;&gt;Error Handler -->
<g id="edge14" class="edge">
<title>Logging Setup&#45;&gt;Error Handler</title>
<path fill="none" stroke="black" d="M1342.41,-348.81C1343.85,-331.21 1346.1,-303.61 1347.79,-283.07"/>
<polygon fill="black" stroke="black" points="1351.28,-283.32 1348.6,-273.07 1344.3,-282.75 1351.28,-283.32"/>
</g>
<!-- Performance Timer -->
<g id="node16" class="node">
<title>Performance Timer</title>
<path fill="azure" stroke="black" stroke-width="2" d="M1465.5,-180C1465.5,-180 1234.5,-180 1234.5,-180 1228.5,-180 1222.5,-174 1222.5,-168 1222.5,-168 1222.5,-156 1222.5,-156 1222.5,-150 1228.5,-144 1234.5,-144 1234.5,-144 1465.5,-144 1465.5,-144 1471.5,-144 1477.5,-150 1477.5,-156 1477.5,-156 1477.5,-168 1477.5,-168 1477.5,-174 1471.5,-180 1465.5,-180"/>
<text text-anchor="start" x="1233" y="-157.8" font-family="DejaVu Sans" font-size="14.00">☑ Decorators for timing functions</text>
</g>
<!-- Error Handler&#45;&gt;Performance Timer -->
<g id="edge15" class="edge">
<title>Error Handler&#45;&gt;Performance Timer</title>
<path fill="none" stroke="black" d="M1350,-236.88C1350,-223.79 1350,-205.48 1350,-190.36"/>
<polygon fill="black" stroke="black" points="1353.5,-190.04 1350,-180.04 1346.5,-190.04 1353.5,-190.04"/>
</g>
<!-- CI Pipeline -->
<g id="node18" class="node">
<title>CI Pipeline</title>
<path fill="azure" stroke="black" stroke-width="2" d="M1152,-108C1152,-108 922,-108 922,-108 916,-108 910,-102 910,-96 910,-96 910,-84 910,-84 910,-78 916,-72 922,-72 922,-72 1152,-72 1152,-72 1158,-72 1164,-78 1164,-84 1164,-84 1164,-96 1164,-96 1164,-102 1158,-108 1152,-108"/>
<text text-anchor="start" x="920" y="-85.8" font-family="DejaVu Sans" font-size="14.00">☐ GitHub Actions for auto&#45;testing</text>
</g>
<!-- Run Full Simulation&#45;&gt;CI Pipeline -->
<g id="edge17" class="edge">
<title>Run Full Simulation&#45;&gt;CI Pipeline</title>
<path fill="none" stroke="black" d="M1037,-143.7C1037,-135.98 1037,-126.71 1037,-118.11"/>
<polygon fill="black" stroke="black" points="1040.5,-118.1 1037,-108.1 1033.5,-118.1 1040.5,-118.1"/>
</g>
<!-- Release v0.1 -->
<g id="node19" class="node">
<title>Release v0.1</title>
<path fill="azure" stroke="black" stroke-width="2" d="M1106,-36C1106,-36 968,-36 968,-36 962,-36 956,-30 956,-24 956,-24 956,-12 956,-12 956,-6 962,0 968,0 968,0 1106,0 1106,0 1112,0 1118,-6 1118,-12 1118,-12 1118,-24 1118,-24 1118,-30 1112,-36 1106,-36"/>
<text text-anchor="start" x="966" y="-13.8" font-family="DejaVu Sans" font-size="14.00">☑ Tagged on GitHub</text>
</g>
<!-- CI Pipeline&#45;&gt;Release v0.1 -->
<g id="edge18" class="edge">
<title>CI Pipeline&#45;&gt;Release v0.1</title>
<path fill="none" stroke="black" d="M1037,-71.7C1037,-63.98 1037,-54.71 1037,-46.11"/>
<polygon fill="black" stroke="black" points="1040.5,-46.1 1037,-36.1 1033.5,-46.1 1040.5,-46.1"/>
</g>
</g>
</svg>
